<svg width="818" height="593" viewBox="0 0 818 593" fill="none" xmlns="http://www.w3.org/2000/svg">
<rect width="818" height="593" fill="#E5E5E5"/>
<rect width="818" height="593" fill="white"/>
<rect x="404" y="89" width="278" height="482" fill="#676767"/>
<rect x="431.5" y="127.5" width="224" height="37" fill="#C4C4C4" stroke="black"/>
<rect x="476.5" y="133.5" width="10" height="10" fill="#00FF19" stroke="black"/>
<rect x="494.5" y="133.5" width="10" height="10" fill="#00FF19" stroke="black"/>
<rect x="440.5" y="149.5" width="10" height="10" fill="#00FF19" stroke="black"/>
<rect x="458.5" y="149.5" width="10" height="10" fill="#00FF19" stroke="black"/>
<rect x="476.5" y="149.5" width="10" height="10" fill="#00FF19" stroke="black"/>
<rect x="494.5" y="149.5" width="10" height="10" fill="#00FF19" stroke="black"/>
<rect x="458.5" y="133.5" width="10" height="10" fill="#00FF19" stroke="black"/>
<rect x="440.5" y="133.5" width="10" height="10" fill="#CC00FF" stroke="black"/>
<rect x="110.5" y="290.5" width="224" height="37" fill="#C4C4C4" stroke="black"/>
<rect x="155.5" y="296.5" width="10" height="10" stroke="black"/>
<rect x="173.5" y="296.5" width="10" height="10" stroke="black"/>
<rect x="119.5" y="312.5" width="10" height="10" stroke="black"/>
<rect x="137.5" y="312.5" width="10" height="10" stroke="black"/>
<rect x="155.5" y="312.5" width="10" height="10" stroke="black"/>
<rect x="173.5" y="312.5" width="10" height="10" stroke="black"/>
<rect x="137.5" y="296.5" width="10" height="10" stroke="black"/>
<rect x="119.5" y="296.5" width="10" height="10" stroke="black"/>
<rect x="431.5" y="179.5" width="224" height="37" fill="#C4C4C4" stroke="white"/>
<rect x="476.5" y="185.5" width="10" height="10" fill="#00FF19" stroke="white"/>
<rect x="494.5" y="185.5" width="10" height="10" fill="#00FF19" stroke="white"/>
<rect x="440.5" y="201.5" width="10" height="10" fill="#00FF19" stroke="white"/>
<rect x="458.5" y="201.5" width="10" height="10" fill="#00FF19" stroke="white"/>
<rect x="476.5" y="201.5" width="10" height="10" fill="#00FF19" stroke="white"/>
<rect x="494.5" y="201.5" width="10" height="10" fill="#00FF19" stroke="white"/>
<rect x="458.5" y="185.5" width="10" height="10" fill="#00FF19" stroke="white"/>
<rect x="440.5" y="185.5" width="10" height="10" fill="#00FF19" stroke="white"/>
<rect x="431.5" y="283.5" width="224" height="37" fill="#C4C4C4" stroke="white"/>
<rect x="476.5" y="289.5" width="10" height="10" fill="#00FF19" stroke="white"/>
<rect x="494.5" y="289.5" width="10" height="10" fill="#CC00FF" stroke="white"/>
<rect x="440.5" y="305.5" width="10" height="10" fill="#00FF19" stroke="white"/>
<rect x="458.5" y="305.5" width="10" height="10" fill="#00FF19" stroke="white"/>
<rect x="476.5" y="305.5" width="10" height="10" fill="#00FF19" stroke="white"/>
<rect x="494.5" y="305.5" width="10" height="10" fill="#CC00FF" stroke="white"/>
<rect x="458.5" y="289.5" width="10" height="10" fill="#00FF19" stroke="white"/>
<rect x="440.5" y="289.5" width="10" height="10" fill="#00FF19" stroke="white"/>
<rect x="431.5" y="231.5" width="224" height="37" fill="#C4C4C4" stroke="black"/>
<rect x="476.5" y="237.5" width="10" height="10" fill="#CC00FF" stroke="black"/>
<rect x="494.5" y="237.5" width="10" height="10" fill="#CC00FF" stroke="black"/>
<rect x="440.5" y="253.5" width="10" height="10" fill="#CC00FF" stroke="black"/>
<rect x="458.5" y="253.5" width="10" height="10" fill="#CC00FF" stroke="black"/>
<rect x="476.5" y="253.5" width="10" height="10" fill="#CC00FF" stroke="black"/>
<rect x="494.5" y="253.5" width="10" height="10" fill="#CC00FF" stroke="black"/>
<rect x="458.5" y="237.5" width="10" height="10" fill="#CC00FF" stroke="black"/>
<rect x="440.5" y="237.5" width="10" height="10" fill="#CC00FF" stroke="black"/>
<path d="M500.98 60.9375H506.629C507.91 60.9375 508.992 61.1328 509.875 61.5234C510.766 61.9141 511.441 62.4922 511.902 63.2578C512.371 64.0156 512.605 64.9492 512.605 66.0586C512.605 66.8398 512.445 67.5547 512.125 68.2031C511.812 68.8438 511.359 69.3906 510.766 69.8438C510.18 70.2891 509.477 70.6211 508.656 70.8398L508.023 71.0859H502.715L502.691 69.2461H506.699C507.512 69.2461 508.188 69.1055 508.727 68.8242C509.266 68.5352 509.672 68.1484 509.945 67.6641C510.219 67.1797 510.355 66.6445 510.355 66.0586C510.355 65.4023 510.227 64.8281 509.969 64.3359C509.711 63.8438 509.305 63.4648 508.75 63.1992C508.203 62.9258 507.496 62.7891 506.629 62.7891H503.242V78H500.98V60.9375ZM510.953 78L506.805 70.2656L509.16 70.2539L513.367 77.8594V78H510.953ZM522.918 75.832V69.3047C522.918 68.8047 522.816 68.3711 522.613 68.0039C522.418 67.6289 522.121 67.3398 521.723 67.1367C521.324 66.9336 520.832 66.832 520.246 66.832C519.699 66.832 519.219 66.9258 518.805 67.1133C518.398 67.3008 518.078 67.5469 517.844 67.8516C517.617 68.1562 517.504 68.4844 517.504 68.8359H515.336C515.336 68.3828 515.453 67.9336 515.688 67.4883C515.922 67.043 516.258 66.6406 516.695 66.2812C517.141 65.9141 517.672 65.625 518.289 65.4141C518.914 65.1953 519.609 65.0859 520.375 65.0859C521.297 65.0859 522.109 65.2422 522.812 65.5547C523.523 65.8672 524.078 66.3398 524.477 66.9727C524.883 67.5977 525.086 68.3828 525.086 69.3281V75.2344C525.086 75.6562 525.121 76.1055 525.191 76.582C525.27 77.0586 525.383 77.4688 525.531 77.8125V78H523.27C523.16 77.75 523.074 77.418 523.012 77.0039C522.949 76.582 522.918 76.1914 522.918 75.832ZM523.293 70.3125L523.316 71.8359H521.125C520.508 71.8359 519.957 71.8867 519.473 71.9883C518.988 72.082 518.582 72.2266 518.254 72.4219C517.926 72.6172 517.676 72.8633 517.504 73.1602C517.332 73.4492 517.246 73.7891 517.246 74.1797C517.246 74.5781 517.336 74.9414 517.516 75.2695C517.695 75.5977 517.965 75.8594 518.324 76.0547C518.691 76.2422 519.141 76.3359 519.672 76.3359C520.336 76.3359 520.922 76.1953 521.43 75.9141C521.938 75.6328 522.34 75.2891 522.637 74.8828C522.941 74.4766 523.105 74.082 523.129 73.6992L524.055 74.7422C524 75.0703 523.852 75.4336 523.609 75.832C523.367 76.2305 523.043 76.6133 522.637 76.9805C522.238 77.3398 521.762 77.6406 521.207 77.8828C520.66 78.1172 520.043 78.2344 519.355 78.2344C518.496 78.2344 517.742 78.0664 517.094 77.7305C516.453 77.3945 515.953 76.9453 515.594 76.3828C515.242 75.8125 515.066 75.1758 515.066 74.4727C515.066 73.793 515.199 73.1953 515.465 72.6797C515.73 72.1562 516.113 71.7227 516.613 71.3789C517.113 71.0273 517.715 70.7617 518.418 70.582C519.121 70.4023 519.906 70.3125 520.773 70.3125H523.293ZM533.57 76.4531C534.086 76.4531 534.562 76.3477 535 76.1367C535.438 75.9258 535.797 75.6367 536.078 75.2695C536.359 74.8945 536.52 74.4688 536.559 73.9922H538.621C538.582 74.7422 538.328 75.4414 537.859 76.0898C537.398 76.7305 536.793 77.25 536.043 77.6484C535.293 78.0391 534.469 78.2344 533.57 78.2344C532.617 78.2344 531.785 78.0664 531.074 77.7305C530.371 77.3945 529.785 76.9336 529.316 76.3477C528.855 75.7617 528.508 75.0898 528.273 74.332C528.047 73.5664 527.934 72.7578 527.934 71.9062V71.4141C527.934 70.5625 528.047 69.7578 528.273 69C528.508 68.2344 528.855 67.5586 529.316 66.9727C529.785 66.3867 530.371 65.9258 531.074 65.5898C531.785 65.2539 532.617 65.0859 533.57 65.0859C534.562 65.0859 535.43 65.2891 536.172 65.6953C536.914 66.0938 537.496 66.6406 537.918 67.3359C538.348 68.0234 538.582 68.8047 538.621 69.6797H536.559C536.52 69.1562 536.371 68.6836 536.113 68.2617C535.863 67.8398 535.52 67.5039 535.082 67.2539C534.652 66.9961 534.148 66.8672 533.57 66.8672C532.906 66.8672 532.348 67 531.895 67.2656C531.449 67.5234 531.094 67.875 530.828 68.3203C530.57 68.7578 530.383 69.2461 530.266 69.7852C530.156 70.3164 530.102 70.8594 530.102 71.4141V71.9062C530.102 72.4609 530.156 73.0078 530.266 73.5469C530.375 74.0859 530.559 74.5742 530.816 75.0117C531.082 75.4492 531.438 75.8008 531.883 76.0664C532.336 76.3242 532.898 76.4531 533.57 76.4531ZM543.238 60V78H541.059V60H543.238ZM550.984 65.3203L545.453 71.2383L542.359 74.4492L542.184 72.1406L544.398 69.4922L548.336 65.3203H550.984ZM549.004 78L544.48 71.9531L545.605 70.0195L551.559 78H549.004ZM566.066 60.8438V78H563.898V63.5508L559.527 65.1445V63.1875L565.727 60.8438H566.066Z" fill="black"/>
<rect x="256.5" y="56.5" width="109" height="81" stroke="black"/>
<path d="M277.299 83H275.518L275.529 82.0801H277.299C277.908 82.0801 278.416 81.9531 278.822 81.6992C279.229 81.4414 279.533 81.082 279.736 80.6211C279.943 80.1562 280.047 79.6133 280.047 78.9922V78.4707C280.047 77.9824 279.988 77.5488 279.871 77.1699C279.754 76.7871 279.582 76.4648 279.355 76.2031C279.129 75.9375 278.852 75.7363 278.523 75.5996C278.199 75.4629 277.826 75.3945 277.404 75.3945H275.482V74.4688H277.404C277.963 74.4688 278.473 74.5625 278.934 74.75C279.395 74.9336 279.791 75.2012 280.123 75.5527C280.459 75.9004 280.717 76.3223 280.896 76.8184C281.076 77.3105 281.166 77.8652 281.166 78.4824V78.9922C281.166 79.6094 281.076 80.166 280.896 80.6621C280.717 81.1543 280.457 81.5742 280.117 81.9219C279.781 82.2695 279.375 82.5371 278.898 82.7246C278.426 82.9082 277.893 83 277.299 83ZM276.121 74.4688V83H274.99V74.4688H276.121ZM285.332 83.1172C284.891 83.1172 284.49 83.043 284.131 82.8945C283.775 82.7422 283.469 82.5293 283.211 82.2559C282.957 81.9824 282.762 81.6582 282.625 81.2832C282.488 80.9082 282.42 80.498 282.42 80.0527V79.8066C282.42 79.291 282.496 78.832 282.648 78.4297C282.801 78.0234 283.008 77.6797 283.27 77.3984C283.531 77.1172 283.828 76.9043 284.16 76.7598C284.492 76.6152 284.836 76.543 285.191 76.543C285.645 76.543 286.035 76.6211 286.363 76.7773C286.695 76.9336 286.967 77.1523 287.178 77.4336C287.389 77.7109 287.545 78.0391 287.646 78.418C287.748 78.793 287.799 79.2031 287.799 79.6484V80.1348H283.064V79.25H286.715V79.168C286.699 78.8867 286.641 78.6133 286.539 78.3477C286.441 78.082 286.285 77.8633 286.07 77.6914C285.855 77.5195 285.562 77.4336 285.191 77.4336C284.945 77.4336 284.719 77.4863 284.512 77.5918C284.305 77.6934 284.127 77.8457 283.979 78.0488C283.83 78.252 283.715 78.5 283.633 78.793C283.551 79.0859 283.51 79.4238 283.51 79.8066V80.0527C283.51 80.3535 283.551 80.6367 283.633 80.9023C283.719 81.1641 283.842 81.3945 284.002 81.5938C284.166 81.793 284.363 81.9492 284.594 82.0625C284.828 82.1758 285.094 82.2324 285.391 82.2324C285.773 82.2324 286.098 82.1543 286.363 81.998C286.629 81.8418 286.861 81.6328 287.061 81.3711L287.717 81.8926C287.58 82.0996 287.406 82.2969 287.195 82.4844C286.984 82.6719 286.725 82.8242 286.416 82.9414C286.111 83.0586 285.75 83.1172 285.332 83.1172ZM290.148 77.8789V85.4375H289.059V76.6602H290.055L290.148 77.8789ZM294.42 79.7773V79.9004C294.42 80.3613 294.365 80.7891 294.256 81.1836C294.146 81.5742 293.986 81.9141 293.775 82.2031C293.568 82.4922 293.312 82.7168 293.008 82.877C292.703 83.0371 292.354 83.1172 291.959 83.1172C291.557 83.1172 291.201 83.0508 290.893 82.918C290.584 82.7852 290.322 82.5918 290.107 82.3379C289.893 82.084 289.721 81.7793 289.592 81.4238C289.467 81.0684 289.381 80.668 289.334 80.2227V79.5664C289.381 79.0977 289.469 78.6777 289.598 78.3066C289.727 77.9355 289.896 77.6191 290.107 77.3574C290.322 77.0918 290.582 76.8906 290.887 76.7539C291.191 76.6133 291.543 76.543 291.941 76.543C292.34 76.543 292.693 76.6211 293.002 76.7773C293.311 76.9297 293.57 77.1484 293.781 77.4336C293.992 77.7188 294.15 78.0605 294.256 78.459C294.365 78.8535 294.42 79.293 294.42 79.7773ZM293.33 79.9004V79.7773C293.33 79.4609 293.297 79.1641 293.23 78.8867C293.164 78.6055 293.061 78.3594 292.92 78.1484C292.783 77.9336 292.607 77.7656 292.393 77.6445C292.178 77.5195 291.922 77.457 291.625 77.457C291.352 77.457 291.113 77.5039 290.91 77.5977C290.711 77.6914 290.541 77.8184 290.4 77.9785C290.26 78.1348 290.145 78.3145 290.055 78.5176C289.969 78.7168 289.904 78.9238 289.861 79.1387V80.6562C289.939 80.9297 290.049 81.1875 290.189 81.4297C290.33 81.668 290.518 81.8613 290.752 82.0098C290.986 82.1543 291.281 82.2266 291.637 82.2266C291.93 82.2266 292.182 82.166 292.393 82.0449C292.607 81.9199 292.783 81.75 292.92 81.5352C293.061 81.3203 293.164 81.0742 293.23 80.7969C293.297 80.5156 293.33 80.2168 293.33 79.9004ZM299.541 81.916V78.6523C299.541 78.4023 299.49 78.1855 299.389 78.002C299.291 77.8145 299.143 77.6699 298.943 77.5684C298.744 77.4668 298.498 77.416 298.205 77.416C297.932 77.416 297.691 77.4629 297.484 77.5566C297.281 77.6504 297.121 77.7734 297.004 77.9258C296.891 78.0781 296.834 78.2422 296.834 78.418H295.75C295.75 78.1914 295.809 77.9668 295.926 77.7441C296.043 77.5215 296.211 77.3203 296.43 77.1406C296.652 76.957 296.918 76.8125 297.227 76.707C297.539 76.5977 297.887 76.543 298.27 76.543C298.73 76.543 299.137 76.6211 299.488 76.7773C299.844 76.9336 300.121 77.1699 300.32 77.4863C300.523 77.7988 300.625 78.1914 300.625 78.6641V81.6172C300.625 81.8281 300.643 82.0527 300.678 82.291C300.717 82.5293 300.773 82.7344 300.848 82.9062V83H299.717C299.662 82.875 299.619 82.709 299.588 82.502C299.557 82.291 299.541 82.0957 299.541 81.916ZM299.729 79.1562L299.74 79.918H298.645C298.336 79.918 298.061 79.9434 297.818 79.9941C297.576 80.041 297.373 80.1133 297.209 80.2109C297.045 80.3086 296.92 80.4316 296.834 80.5801C296.748 80.7246 296.705 80.8945 296.705 81.0898C296.705 81.2891 296.75 81.4707 296.84 81.6348C296.93 81.7988 297.064 81.9297 297.244 82.0273C297.428 82.1211 297.652 82.168 297.918 82.168C298.25 82.168 298.543 82.0977 298.797 81.957C299.051 81.8164 299.252 81.6445 299.4 81.4414C299.553 81.2383 299.635 81.041 299.646 80.8496L300.109 81.3711C300.082 81.5352 300.008 81.7168 299.887 81.916C299.766 82.1152 299.604 82.3066 299.4 82.4902C299.201 82.6699 298.963 82.8203 298.686 82.9414C298.412 83.0586 298.104 83.1172 297.76 83.1172C297.33 83.1172 296.953 83.0332 296.629 82.8652C296.309 82.6973 296.059 82.4727 295.879 82.1914C295.703 81.9062 295.615 81.5879 295.615 81.2363C295.615 80.8965 295.682 80.5977 295.814 80.3398C295.947 80.0781 296.139 79.8613 296.389 79.6895C296.639 79.5137 296.939 79.3809 297.291 79.291C297.643 79.2012 298.035 79.1562 298.469 79.1562H299.729ZM303.414 77.6562V83H302.33V76.6602H303.385L303.414 77.6562ZM305.395 76.625L305.389 77.6328C305.299 77.6133 305.213 77.6016 305.131 77.5977C305.053 77.5898 304.963 77.5859 304.861 77.5859C304.611 77.5859 304.391 77.625 304.199 77.7031C304.008 77.7812 303.846 77.8906 303.713 78.0312C303.58 78.1719 303.475 78.3398 303.396 78.5352C303.322 78.7266 303.273 78.9375 303.25 79.168L302.945 79.3438C302.945 78.9609 302.982 78.6016 303.057 78.2656C303.135 77.9297 303.254 77.6328 303.414 77.375C303.574 77.1133 303.777 76.9102 304.023 76.7656C304.273 76.6172 304.57 76.543 304.914 76.543C304.992 76.543 305.082 76.5527 305.184 76.5723C305.285 76.5879 305.355 76.6055 305.395 76.625ZM309.344 76.6602V77.4922H305.916V76.6602H309.344ZM307.076 75.1191H308.16V81.4297C308.16 81.6445 308.193 81.8066 308.26 81.916C308.326 82.0254 308.412 82.0977 308.518 82.1328C308.623 82.168 308.736 82.1855 308.857 82.1855C308.947 82.1855 309.041 82.1777 309.139 82.1621C309.24 82.1426 309.316 82.127 309.367 82.1152L309.373 83C309.287 83.0273 309.174 83.0527 309.033 83.0762C308.896 83.1035 308.73 83.1172 308.535 83.1172C308.27 83.1172 308.025 83.0645 307.803 82.959C307.58 82.8535 307.402 82.6777 307.27 82.4316C307.141 82.1816 307.076 81.8457 307.076 81.4238V75.1191ZM311.693 77.9199V83H310.604V76.6602H311.635L311.693 77.9199ZM311.471 79.5898L310.967 79.5723C310.971 79.1387 311.027 78.7383 311.137 78.3711C311.246 78 311.408 77.6777 311.623 77.4043C311.838 77.1309 312.105 76.9199 312.426 76.7715C312.746 76.6191 313.117 76.543 313.539 76.543C313.836 76.543 314.109 76.5859 314.359 76.6719C314.609 76.7539 314.826 76.8848 315.01 77.0645C315.193 77.2441 315.336 77.4746 315.438 77.7559C315.539 78.0371 315.59 78.377 315.59 78.7754V83H314.506V78.8281C314.506 78.4961 314.449 78.2305 314.336 78.0312C314.227 77.832 314.07 77.6875 313.867 77.5977C313.664 77.5039 313.426 77.457 313.152 77.457C312.832 77.457 312.564 77.5137 312.35 77.627C312.135 77.7402 311.963 77.8965 311.834 78.0957C311.705 78.2949 311.611 78.5234 311.553 78.7812C311.498 79.0352 311.471 79.3047 311.471 79.5898ZM315.578 78.9922L314.852 79.2148C314.855 78.8672 314.912 78.5332 315.021 78.2129C315.135 77.8926 315.297 77.6074 315.508 77.3574C315.723 77.1074 315.986 76.9102 316.299 76.7656C316.611 76.6172 316.969 76.543 317.371 76.543C317.711 76.543 318.012 76.5879 318.273 76.6777C318.539 76.7676 318.762 76.9062 318.941 77.0938C319.125 77.2773 319.264 77.5137 319.357 77.8027C319.451 78.0918 319.498 78.4355 319.498 78.834V83H318.408V78.8223C318.408 78.4668 318.352 78.1914 318.238 77.9961C318.129 77.7969 317.973 77.6582 317.77 77.5801C317.57 77.498 317.332 77.457 317.055 77.457C316.816 77.457 316.605 77.498 316.422 77.5801C316.238 77.6621 316.084 77.7754 315.959 77.9199C315.834 78.0605 315.738 78.2227 315.672 78.4062C315.609 78.5898 315.578 78.7852 315.578 78.9922ZM323.77 83.1172C323.328 83.1172 322.928 83.043 322.568 82.8945C322.213 82.7422 321.906 82.5293 321.648 82.2559C321.395 81.9824 321.199 81.6582 321.062 81.2832C320.926 80.9082 320.857 80.498 320.857 80.0527V79.8066C320.857 79.291 320.934 78.832 321.086 78.4297C321.238 78.0234 321.445 77.6797 321.707 77.3984C321.969 77.1172 322.266 76.9043 322.598 76.7598C322.93 76.6152 323.273 76.543 323.629 76.543C324.082 76.543 324.473 76.6211 324.801 76.7773C325.133 76.9336 325.404 77.1523 325.615 77.4336C325.826 77.7109 325.982 78.0391 326.084 78.418C326.186 78.793 326.236 79.2031 326.236 79.6484V80.1348H321.502V79.25H325.152V79.168C325.137 78.8867 325.078 78.6133 324.977 78.3477C324.879 78.082 324.723 77.8633 324.508 77.6914C324.293 77.5195 324 77.4336 323.629 77.4336C323.383 77.4336 323.156 77.4863 322.949 77.5918C322.742 77.6934 322.564 77.8457 322.416 78.0488C322.268 78.252 322.152 78.5 322.07 78.793C321.988 79.0859 321.947 79.4238 321.947 79.8066V80.0527C321.947 80.3535 321.988 80.6367 322.07 80.9023C322.156 81.1641 322.279 81.3945 322.439 81.5938C322.604 81.793 322.801 81.9492 323.031 82.0625C323.266 82.1758 323.531 82.2324 323.828 82.2324C324.211 82.2324 324.535 82.1543 324.801 81.998C325.066 81.8418 325.299 81.6328 325.498 81.3711L326.154 81.8926C326.018 82.0996 325.844 82.2969 325.633 82.4844C325.422 82.6719 325.162 82.8242 324.854 82.9414C324.549 83.0586 324.188 83.1172 323.77 83.1172ZM328.586 78.0137V83H327.502V76.6602H328.527L328.586 78.0137ZM328.328 79.5898L327.877 79.5723C327.881 79.1387 327.945 78.7383 328.07 78.3711C328.195 78 328.371 77.6777 328.598 77.4043C328.824 77.1309 329.094 76.9199 329.406 76.7715C329.723 76.6191 330.072 76.543 330.455 76.543C330.768 76.543 331.049 76.5859 331.299 76.6719C331.549 76.7539 331.762 76.8867 331.938 77.0703C332.117 77.2539 332.254 77.4922 332.348 77.7852C332.441 78.0742 332.488 78.4277 332.488 78.8457V83H331.398V78.834C331.398 78.502 331.35 78.2363 331.252 78.0371C331.154 77.834 331.012 77.6875 330.824 77.5977C330.637 77.5039 330.406 77.457 330.133 77.457C329.863 77.457 329.617 77.5137 329.395 77.627C329.176 77.7402 328.986 77.8965 328.826 78.0957C328.67 78.2949 328.547 78.5234 328.457 78.7812C328.371 79.0352 328.328 79.3047 328.328 79.5898ZM336.789 76.6602V77.4922H333.361V76.6602H336.789ZM334.521 75.1191H335.605V81.4297C335.605 81.6445 335.639 81.8066 335.705 81.916C335.771 82.0254 335.857 82.0977 335.963 82.1328C336.068 82.168 336.182 82.1855 336.303 82.1855C336.393 82.1855 336.486 82.1777 336.584 82.1621C336.686 82.1426 336.762 82.127 336.812 82.1152L336.818 83C336.732 83.0273 336.619 83.0527 336.479 83.0762C336.342 83.1035 336.176 83.1172 335.98 83.1172C335.715 83.1172 335.471 83.0645 335.248 82.959C335.025 82.8535 334.848 82.6777 334.715 82.4316C334.586 82.1816 334.521 81.8457 334.521 81.4238V75.1191ZM344.482 74.4219V83H343.398V75.7754L341.213 76.5723V75.5938L344.312 74.4219H344.482Z" fill="black"/>
<path d="M277.299 118H275.518L275.529 117.08H277.299C277.908 117.08 278.416 116.953 278.822 116.699C279.229 116.441 279.533 116.082 279.736 115.621C279.943 115.156 280.047 114.613 280.047 113.992V113.471C280.047 112.982 279.988 112.549 279.871 112.17C279.754 111.787 279.582 111.465 279.355 111.203C279.129 110.938 278.852 110.736 278.523 110.6C278.199 110.463 277.826 110.395 277.404 110.395H275.482V109.469H277.404C277.963 109.469 278.473 109.562 278.934 109.75C279.395 109.934 279.791 110.201 280.123 110.553C280.459 110.9 280.717 111.322 280.896 111.818C281.076 112.311 281.166 112.865 281.166 113.482V113.992C281.166 114.609 281.076 115.166 280.896 115.662C280.717 116.154 280.457 116.574 280.117 116.922C279.781 117.27 279.375 117.537 278.898 117.725C278.426 117.908 277.893 118 277.299 118ZM276.121 109.469V118H274.99V109.469H276.121ZM285.332 118.117C284.891 118.117 284.49 118.043 284.131 117.895C283.775 117.742 283.469 117.529 283.211 117.256C282.957 116.982 282.762 116.658 282.625 116.283C282.488 115.908 282.42 115.498 282.42 115.053V114.807C282.42 114.291 282.496 113.832 282.648 113.43C282.801 113.023 283.008 112.68 283.27 112.398C283.531 112.117 283.828 111.904 284.16 111.76C284.492 111.615 284.836 111.543 285.191 111.543C285.645 111.543 286.035 111.621 286.363 111.777C286.695 111.934 286.967 112.152 287.178 112.434C287.389 112.711 287.545 113.039 287.646 113.418C287.748 113.793 287.799 114.203 287.799 114.648V115.135H283.064V114.25H286.715V114.168C286.699 113.887 286.641 113.613 286.539 113.348C286.441 113.082 286.285 112.863 286.07 112.691C285.855 112.52 285.562 112.434 285.191 112.434C284.945 112.434 284.719 112.486 284.512 112.592C284.305 112.693 284.127 112.846 283.979 113.049C283.83 113.252 283.715 113.5 283.633 113.793C283.551 114.086 283.51 114.424 283.51 114.807V115.053C283.51 115.354 283.551 115.637 283.633 115.902C283.719 116.164 283.842 116.395 284.002 116.594C284.166 116.793 284.363 116.949 284.594 117.062C284.828 117.176 285.094 117.232 285.391 117.232C285.773 117.232 286.098 117.154 286.363 116.998C286.629 116.842 286.861 116.633 287.061 116.371L287.717 116.893C287.58 117.1 287.406 117.297 287.195 117.484C286.984 117.672 286.725 117.824 286.416 117.941C286.111 118.059 285.75 118.117 285.332 118.117ZM290.148 112.879V120.438H289.059V111.66H290.055L290.148 112.879ZM294.42 114.777V114.9C294.42 115.361 294.365 115.789 294.256 116.184C294.146 116.574 293.986 116.914 293.775 117.203C293.568 117.492 293.312 117.717 293.008 117.877C292.703 118.037 292.354 118.117 291.959 118.117C291.557 118.117 291.201 118.051 290.893 117.918C290.584 117.785 290.322 117.592 290.107 117.338C289.893 117.084 289.721 116.779 289.592 116.424C289.467 116.068 289.381 115.668 289.334 115.223V114.566C289.381 114.098 289.469 113.678 289.598 113.307C289.727 112.936 289.896 112.619 290.107 112.357C290.322 112.092 290.582 111.891 290.887 111.754C291.191 111.613 291.543 111.543 291.941 111.543C292.34 111.543 292.693 111.621 293.002 111.777C293.311 111.93 293.57 112.148 293.781 112.434C293.992 112.719 294.15 113.061 294.256 113.459C294.365 113.854 294.42 114.293 294.42 114.777ZM293.33 114.9V114.777C293.33 114.461 293.297 114.164 293.23 113.887C293.164 113.605 293.061 113.359 292.92 113.148C292.783 112.934 292.607 112.766 292.393 112.645C292.178 112.52 291.922 112.457 291.625 112.457C291.352 112.457 291.113 112.504 290.91 112.598C290.711 112.691 290.541 112.818 290.4 112.979C290.26 113.135 290.145 113.314 290.055 113.518C289.969 113.717 289.904 113.924 289.861 114.139V115.656C289.939 115.93 290.049 116.188 290.189 116.43C290.33 116.668 290.518 116.861 290.752 117.01C290.986 117.154 291.281 117.227 291.637 117.227C291.93 117.227 292.182 117.166 292.393 117.045C292.607 116.92 292.783 116.75 292.92 116.535C293.061 116.32 293.164 116.074 293.23 115.797C293.297 115.516 293.33 115.217 293.33 114.9ZM299.541 116.916V113.652C299.541 113.402 299.49 113.186 299.389 113.002C299.291 112.814 299.143 112.67 298.943 112.568C298.744 112.467 298.498 112.416 298.205 112.416C297.932 112.416 297.691 112.463 297.484 112.557C297.281 112.65 297.121 112.773 297.004 112.926C296.891 113.078 296.834 113.242 296.834 113.418H295.75C295.75 113.191 295.809 112.967 295.926 112.744C296.043 112.521 296.211 112.32 296.43 112.141C296.652 111.957 296.918 111.812 297.227 111.707C297.539 111.598 297.887 111.543 298.27 111.543C298.73 111.543 299.137 111.621 299.488 111.777C299.844 111.934 300.121 112.17 300.32 112.486C300.523 112.799 300.625 113.191 300.625 113.664V116.617C300.625 116.828 300.643 117.053 300.678 117.291C300.717 117.529 300.773 117.734 300.848 117.906V118H299.717C299.662 117.875 299.619 117.709 299.588 117.502C299.557 117.291 299.541 117.096 299.541 116.916ZM299.729 114.156L299.74 114.918H298.645C298.336 114.918 298.061 114.943 297.818 114.994C297.576 115.041 297.373 115.113 297.209 115.211C297.045 115.309 296.92 115.432 296.834 115.58C296.748 115.725 296.705 115.895 296.705 116.09C296.705 116.289 296.75 116.471 296.84 116.635C296.93 116.799 297.064 116.93 297.244 117.027C297.428 117.121 297.652 117.168 297.918 117.168C298.25 117.168 298.543 117.098 298.797 116.957C299.051 116.816 299.252 116.645 299.4 116.441C299.553 116.238 299.635 116.041 299.646 115.85L300.109 116.371C300.082 116.535 300.008 116.717 299.887 116.916C299.766 117.115 299.604 117.307 299.4 117.49C299.201 117.67 298.963 117.82 298.686 117.941C298.412 118.059 298.104 118.117 297.76 118.117C297.33 118.117 296.953 118.033 296.629 117.865C296.309 117.697 296.059 117.473 295.879 117.191C295.703 116.906 295.615 116.588 295.615 116.236C295.615 115.896 295.682 115.598 295.814 115.34C295.947 115.078 296.139 114.861 296.389 114.689C296.639 114.514 296.939 114.381 297.291 114.291C297.643 114.201 298.035 114.156 298.469 114.156H299.729ZM303.414 112.656V118H302.33V111.66H303.385L303.414 112.656ZM305.395 111.625L305.389 112.633C305.299 112.613 305.213 112.602 305.131 112.598C305.053 112.59 304.963 112.586 304.861 112.586C304.611 112.586 304.391 112.625 304.199 112.703C304.008 112.781 303.846 112.891 303.713 113.031C303.58 113.172 303.475 113.34 303.396 113.535C303.322 113.727 303.273 113.938 303.25 114.168L302.945 114.344C302.945 113.961 302.982 113.602 303.057 113.266C303.135 112.93 303.254 112.633 303.414 112.375C303.574 112.113 303.777 111.91 304.023 111.766C304.273 111.617 304.57 111.543 304.914 111.543C304.992 111.543 305.082 111.553 305.184 111.572C305.285 111.588 305.355 111.605 305.395 111.625ZM309.344 111.66V112.492H305.916V111.66H309.344ZM307.076 110.119H308.16V116.43C308.16 116.645 308.193 116.807 308.26 116.916C308.326 117.025 308.412 117.098 308.518 117.133C308.623 117.168 308.736 117.186 308.857 117.186C308.947 117.186 309.041 117.178 309.139 117.162C309.24 117.143 309.316 117.127 309.367 117.115L309.373 118C309.287 118.027 309.174 118.053 309.033 118.076C308.896 118.104 308.73 118.117 308.535 118.117C308.27 118.117 308.025 118.064 307.803 117.959C307.58 117.854 307.402 117.678 307.27 117.432C307.141 117.182 307.076 116.846 307.076 116.424V110.119ZM311.693 112.92V118H310.604V111.66H311.635L311.693 112.92ZM311.471 114.59L310.967 114.572C310.971 114.139 311.027 113.738 311.137 113.371C311.246 113 311.408 112.678 311.623 112.404C311.838 112.131 312.105 111.92 312.426 111.771C312.746 111.619 313.117 111.543 313.539 111.543C313.836 111.543 314.109 111.586 314.359 111.672C314.609 111.754 314.826 111.885 315.01 112.064C315.193 112.244 315.336 112.475 315.438 112.756C315.539 113.037 315.59 113.377 315.59 113.775V118H314.506V113.828C314.506 113.496 314.449 113.23 314.336 113.031C314.227 112.832 314.07 112.688 313.867 112.598C313.664 112.504 313.426 112.457 313.152 112.457C312.832 112.457 312.564 112.514 312.35 112.627C312.135 112.74 311.963 112.896 311.834 113.096C311.705 113.295 311.611 113.523 311.553 113.781C311.498 114.035 311.471 114.305 311.471 114.59ZM315.578 113.992L314.852 114.215C314.855 113.867 314.912 113.533 315.021 113.213C315.135 112.893 315.297 112.607 315.508 112.357C315.723 112.107 315.986 111.91 316.299 111.766C316.611 111.617 316.969 111.543 317.371 111.543C317.711 111.543 318.012 111.588 318.273 111.678C318.539 111.768 318.762 111.906 318.941 112.094C319.125 112.277 319.264 112.514 319.357 112.803C319.451 113.092 319.498 113.436 319.498 113.834V118H318.408V113.822C318.408 113.467 318.352 113.191 318.238 112.996C318.129 112.797 317.973 112.658 317.77 112.58C317.57 112.498 317.332 112.457 317.055 112.457C316.816 112.457 316.605 112.498 316.422 112.58C316.238 112.662 316.084 112.775 315.959 112.92C315.834 113.061 315.738 113.223 315.672 113.406C315.609 113.59 315.578 113.785 315.578 113.992ZM323.77 118.117C323.328 118.117 322.928 118.043 322.568 117.895C322.213 117.742 321.906 117.529 321.648 117.256C321.395 116.982 321.199 116.658 321.062 116.283C320.926 115.908 320.857 115.498 320.857 115.053V114.807C320.857 114.291 320.934 113.832 321.086 113.43C321.238 113.023 321.445 112.68 321.707 112.398C321.969 112.117 322.266 111.904 322.598 111.76C322.93 111.615 323.273 111.543 323.629 111.543C324.082 111.543 324.473 111.621 324.801 111.777C325.133 111.934 325.404 112.152 325.615 112.434C325.826 112.711 325.982 113.039 326.084 113.418C326.186 113.793 326.236 114.203 326.236 114.648V115.135H321.502V114.25H325.152V114.168C325.137 113.887 325.078 113.613 324.977 113.348C324.879 113.082 324.723 112.863 324.508 112.691C324.293 112.52 324 112.434 323.629 112.434C323.383 112.434 323.156 112.486 322.949 112.592C322.742 112.693 322.564 112.846 322.416 113.049C322.268 113.252 322.152 113.5 322.07 113.793C321.988 114.086 321.947 114.424 321.947 114.807V115.053C321.947 115.354 321.988 115.637 322.07 115.902C322.156 116.164 322.279 116.395 322.439 116.594C322.604 116.793 322.801 116.949 323.031 117.062C323.266 117.176 323.531 117.232 323.828 117.232C324.211 117.232 324.535 117.154 324.801 116.998C325.066 116.842 325.299 116.633 325.498 116.371L326.154 116.893C326.018 117.1 325.844 117.297 325.633 117.484C325.422 117.672 325.162 117.824 324.854 117.941C324.549 118.059 324.188 118.117 323.77 118.117ZM328.586 113.014V118H327.502V111.66H328.527L328.586 113.014ZM328.328 114.59L327.877 114.572C327.881 114.139 327.945 113.738 328.07 113.371C328.195 113 328.371 112.678 328.598 112.404C328.824 112.131 329.094 111.92 329.406 111.771C329.723 111.619 330.072 111.543 330.455 111.543C330.768 111.543 331.049 111.586 331.299 111.672C331.549 111.754 331.762 111.887 331.938 112.07C332.117 112.254 332.254 112.492 332.348 112.785C332.441 113.074 332.488 113.428 332.488 113.846V118H331.398V113.834C331.398 113.502 331.35 113.236 331.252 113.037C331.154 112.834 331.012 112.688 330.824 112.598C330.637 112.504 330.406 112.457 330.133 112.457C329.863 112.457 329.617 112.514 329.395 112.627C329.176 112.74 328.986 112.896 328.826 113.096C328.67 113.295 328.547 113.523 328.457 113.781C328.371 114.035 328.328 114.305 328.328 114.59ZM336.789 111.66V112.492H333.361V111.66H336.789ZM334.521 110.119H335.605V116.43C335.605 116.645 335.639 116.807 335.705 116.916C335.771 117.025 335.857 117.098 335.963 117.133C336.068 117.168 336.182 117.186 336.303 117.186C336.393 117.186 336.486 117.178 336.584 117.162C336.686 117.143 336.762 117.127 336.812 117.115L336.818 118C336.732 118.027 336.619 118.053 336.479 118.076C336.342 118.104 336.176 118.117 335.98 118.117C335.715 118.117 335.471 118.064 335.248 117.959C335.025 117.854 334.848 117.678 334.715 117.432C334.586 117.182 334.521 116.846 334.521 116.424V110.119ZM346.51 117.109V118H340.926V117.221L343.721 114.109C344.064 113.727 344.33 113.402 344.518 113.137C344.709 112.867 344.842 112.627 344.916 112.416C344.994 112.201 345.033 111.982 345.033 111.76C345.033 111.479 344.975 111.225 344.857 110.998C344.744 110.768 344.576 110.584 344.354 110.447C344.131 110.311 343.861 110.242 343.545 110.242C343.166 110.242 342.85 110.316 342.596 110.465C342.346 110.609 342.158 110.812 342.033 111.074C341.908 111.336 341.846 111.637 341.846 111.977H340.762C340.762 111.496 340.867 111.057 341.078 110.658C341.289 110.26 341.602 109.943 342.016 109.709C342.43 109.471 342.939 109.352 343.545 109.352C344.084 109.352 344.545 109.447 344.928 109.639C345.311 109.826 345.604 110.092 345.807 110.436C346.014 110.775 346.117 111.174 346.117 111.631C346.117 111.881 346.074 112.135 345.988 112.393C345.906 112.646 345.791 112.9 345.643 113.154C345.498 113.408 345.328 113.658 345.133 113.904C344.941 114.15 344.736 114.393 344.518 114.631L342.232 117.109H346.51Z" fill="black"/>
<rect x="257.5" y="168.5" width="109" height="43" stroke="black"/>
<path d="M279.299 196H277.518L277.529 195.08H279.299C279.908 195.08 280.416 194.953 280.822 194.699C281.229 194.441 281.533 194.082 281.736 193.621C281.943 193.156 282.047 192.613 282.047 191.992V191.471C282.047 190.982 281.988 190.549 281.871 190.17C281.754 189.787 281.582 189.465 281.355 189.203C281.129 188.938 280.852 188.736 280.523 188.6C280.199 188.463 279.826 188.395 279.404 188.395H277.482V187.469H279.404C279.963 187.469 280.473 187.562 280.934 187.75C281.395 187.934 281.791 188.201 282.123 188.553C282.459 188.9 282.717 189.322 282.896 189.818C283.076 190.311 283.166 190.865 283.166 191.482V191.992C283.166 192.609 283.076 193.166 282.896 193.662C282.717 194.154 282.457 194.574 282.117 194.922C281.781 195.27 281.375 195.537 280.898 195.725C280.426 195.908 279.893 196 279.299 196ZM278.121 187.469V196H276.99V187.469H278.121ZM287.332 196.117C286.891 196.117 286.49 196.043 286.131 195.895C285.775 195.742 285.469 195.529 285.211 195.256C284.957 194.982 284.762 194.658 284.625 194.283C284.488 193.908 284.42 193.498 284.42 193.053V192.807C284.42 192.291 284.496 191.832 284.648 191.43C284.801 191.023 285.008 190.68 285.27 190.398C285.531 190.117 285.828 189.904 286.16 189.76C286.492 189.615 286.836 189.543 287.191 189.543C287.645 189.543 288.035 189.621 288.363 189.777C288.695 189.934 288.967 190.152 289.178 190.434C289.389 190.711 289.545 191.039 289.646 191.418C289.748 191.793 289.799 192.203 289.799 192.648V193.135H285.064V192.25H288.715V192.168C288.699 191.887 288.641 191.613 288.539 191.348C288.441 191.082 288.285 190.863 288.07 190.691C287.855 190.52 287.562 190.434 287.191 190.434C286.945 190.434 286.719 190.486 286.512 190.592C286.305 190.693 286.127 190.846 285.979 191.049C285.83 191.252 285.715 191.5 285.633 191.793C285.551 192.086 285.51 192.424 285.51 192.807V193.053C285.51 193.354 285.551 193.637 285.633 193.902C285.719 194.164 285.842 194.395 286.002 194.594C286.166 194.793 286.363 194.949 286.594 195.062C286.828 195.176 287.094 195.232 287.391 195.232C287.773 195.232 288.098 195.154 288.363 194.998C288.629 194.842 288.861 194.633 289.061 194.371L289.717 194.893C289.58 195.1 289.406 195.297 289.195 195.484C288.984 195.672 288.725 195.824 288.416 195.941C288.111 196.059 287.75 196.117 287.332 196.117ZM292.148 190.879V198.438H291.059V189.66H292.055L292.148 190.879ZM296.42 192.777V192.9C296.42 193.361 296.365 193.789 296.256 194.184C296.146 194.574 295.986 194.914 295.775 195.203C295.568 195.492 295.312 195.717 295.008 195.877C294.703 196.037 294.354 196.117 293.959 196.117C293.557 196.117 293.201 196.051 292.893 195.918C292.584 195.785 292.322 195.592 292.107 195.338C291.893 195.084 291.721 194.779 291.592 194.424C291.467 194.068 291.381 193.668 291.334 193.223V192.566C291.381 192.098 291.469 191.678 291.598 191.307C291.727 190.936 291.896 190.619 292.107 190.357C292.322 190.092 292.582 189.891 292.887 189.754C293.191 189.613 293.543 189.543 293.941 189.543C294.34 189.543 294.693 189.621 295.002 189.777C295.311 189.93 295.57 190.148 295.781 190.434C295.992 190.719 296.15 191.061 296.256 191.459C296.365 191.854 296.42 192.293 296.42 192.777ZM295.33 192.9V192.777C295.33 192.461 295.297 192.164 295.23 191.887C295.164 191.605 295.061 191.359 294.92 191.148C294.783 190.934 294.607 190.766 294.393 190.645C294.178 190.52 293.922 190.457 293.625 190.457C293.352 190.457 293.113 190.504 292.91 190.598C292.711 190.691 292.541 190.818 292.4 190.979C292.26 191.135 292.145 191.314 292.055 191.518C291.969 191.717 291.904 191.924 291.861 192.139V193.656C291.939 193.93 292.049 194.188 292.189 194.43C292.33 194.668 292.518 194.861 292.752 195.01C292.986 195.154 293.281 195.227 293.637 195.227C293.93 195.227 294.182 195.166 294.393 195.045C294.607 194.92 294.783 194.75 294.92 194.535C295.061 194.32 295.164 194.074 295.23 193.797C295.297 193.516 295.33 193.217 295.33 192.9ZM301.541 194.916V191.652C301.541 191.402 301.49 191.186 301.389 191.002C301.291 190.814 301.143 190.67 300.943 190.568C300.744 190.467 300.498 190.416 300.205 190.416C299.932 190.416 299.691 190.463 299.484 190.557C299.281 190.65 299.121 190.773 299.004 190.926C298.891 191.078 298.834 191.242 298.834 191.418H297.75C297.75 191.191 297.809 190.967 297.926 190.744C298.043 190.521 298.211 190.32 298.43 190.141C298.652 189.957 298.918 189.812 299.227 189.707C299.539 189.598 299.887 189.543 300.27 189.543C300.73 189.543 301.137 189.621 301.488 189.777C301.844 189.934 302.121 190.17 302.32 190.486C302.523 190.799 302.625 191.191 302.625 191.664V194.617C302.625 194.828 302.643 195.053 302.678 195.291C302.717 195.529 302.773 195.734 302.848 195.906V196H301.717C301.662 195.875 301.619 195.709 301.588 195.502C301.557 195.291 301.541 195.096 301.541 194.916ZM301.729 192.156L301.74 192.918H300.645C300.336 192.918 300.061 192.943 299.818 192.994C299.576 193.041 299.373 193.113 299.209 193.211C299.045 193.309 298.92 193.432 298.834 193.58C298.748 193.725 298.705 193.895 298.705 194.09C298.705 194.289 298.75 194.471 298.84 194.635C298.93 194.799 299.064 194.93 299.244 195.027C299.428 195.121 299.652 195.168 299.918 195.168C300.25 195.168 300.543 195.098 300.797 194.957C301.051 194.816 301.252 194.645 301.4 194.441C301.553 194.238 301.635 194.041 301.646 193.85L302.109 194.371C302.082 194.535 302.008 194.717 301.887 194.916C301.766 195.115 301.604 195.307 301.4 195.49C301.201 195.67 300.963 195.82 300.686 195.941C300.412 196.059 300.104 196.117 299.76 196.117C299.33 196.117 298.953 196.033 298.629 195.865C298.309 195.697 298.059 195.473 297.879 195.191C297.703 194.906 297.615 194.588 297.615 194.236C297.615 193.896 297.682 193.598 297.814 193.34C297.947 193.078 298.139 192.861 298.389 192.689C298.639 192.514 298.939 192.381 299.291 192.291C299.643 192.201 300.035 192.156 300.469 192.156H301.729ZM305.414 190.656V196H304.33V189.66H305.385L305.414 190.656ZM307.395 189.625L307.389 190.633C307.299 190.613 307.213 190.602 307.131 190.598C307.053 190.59 306.963 190.586 306.861 190.586C306.611 190.586 306.391 190.625 306.199 190.703C306.008 190.781 305.846 190.891 305.713 191.031C305.58 191.172 305.475 191.34 305.396 191.535C305.322 191.727 305.273 191.938 305.25 192.168L304.945 192.344C304.945 191.961 304.982 191.602 305.057 191.266C305.135 190.93 305.254 190.633 305.414 190.375C305.574 190.113 305.777 189.91 306.023 189.766C306.273 189.617 306.57 189.543 306.914 189.543C306.992 189.543 307.082 189.553 307.184 189.572C307.285 189.588 307.355 189.605 307.395 189.625ZM311.344 189.66V190.492H307.916V189.66H311.344ZM309.076 188.119H310.16V194.43C310.16 194.645 310.193 194.807 310.26 194.916C310.326 195.025 310.412 195.098 310.518 195.133C310.623 195.168 310.736 195.186 310.857 195.186C310.947 195.186 311.041 195.178 311.139 195.162C311.24 195.143 311.316 195.127 311.367 195.115L311.373 196C311.287 196.027 311.174 196.053 311.033 196.076C310.896 196.104 310.73 196.117 310.535 196.117C310.27 196.117 310.025 196.064 309.803 195.959C309.58 195.854 309.402 195.678 309.27 195.432C309.141 195.182 309.076 194.846 309.076 194.424V188.119ZM313.693 190.92V196H312.604V189.66H313.635L313.693 190.92ZM313.471 192.59L312.967 192.572C312.971 192.139 313.027 191.738 313.137 191.371C313.246 191 313.408 190.678 313.623 190.404C313.838 190.131 314.105 189.92 314.426 189.771C314.746 189.619 315.117 189.543 315.539 189.543C315.836 189.543 316.109 189.586 316.359 189.672C316.609 189.754 316.826 189.885 317.01 190.064C317.193 190.244 317.336 190.475 317.438 190.756C317.539 191.037 317.59 191.377 317.59 191.775V196H316.506V191.828C316.506 191.496 316.449 191.23 316.336 191.031C316.227 190.832 316.07 190.688 315.867 190.598C315.664 190.504 315.426 190.457 315.152 190.457C314.832 190.457 314.564 190.514 314.35 190.627C314.135 190.74 313.963 190.896 313.834 191.096C313.705 191.295 313.611 191.523 313.553 191.781C313.498 192.035 313.471 192.305 313.471 192.59ZM317.578 191.992L316.852 192.215C316.855 191.867 316.912 191.533 317.021 191.213C317.135 190.893 317.297 190.607 317.508 190.357C317.723 190.107 317.986 189.91 318.299 189.766C318.611 189.617 318.969 189.543 319.371 189.543C319.711 189.543 320.012 189.588 320.273 189.678C320.539 189.768 320.762 189.906 320.941 190.094C321.125 190.277 321.264 190.514 321.357 190.803C321.451 191.092 321.498 191.436 321.498 191.834V196H320.408V191.822C320.408 191.467 320.352 191.191 320.238 190.996C320.129 190.797 319.973 190.658 319.77 190.58C319.57 190.498 319.332 190.457 319.055 190.457C318.816 190.457 318.605 190.498 318.422 190.58C318.238 190.662 318.084 190.775 317.959 190.92C317.834 191.061 317.738 191.223 317.672 191.406C317.609 191.59 317.578 191.785 317.578 191.992ZM325.77 196.117C325.328 196.117 324.928 196.043 324.568 195.895C324.213 195.742 323.906 195.529 323.648 195.256C323.395 194.982 323.199 194.658 323.062 194.283C322.926 193.908 322.857 193.498 322.857 193.053V192.807C322.857 192.291 322.934 191.832 323.086 191.43C323.238 191.023 323.445 190.68 323.707 190.398C323.969 190.117 324.266 189.904 324.598 189.76C324.93 189.615 325.273 189.543 325.629 189.543C326.082 189.543 326.473 189.621 326.801 189.777C327.133 189.934 327.404 190.152 327.615 190.434C327.826 190.711 327.982 191.039 328.084 191.418C328.186 191.793 328.236 192.203 328.236 192.648V193.135H323.502V192.25H327.152V192.168C327.137 191.887 327.078 191.613 326.977 191.348C326.879 191.082 326.723 190.863 326.508 190.691C326.293 190.52 326 190.434 325.629 190.434C325.383 190.434 325.156 190.486 324.949 190.592C324.742 190.693 324.564 190.846 324.416 191.049C324.268 191.252 324.152 191.5 324.07 191.793C323.988 192.086 323.947 192.424 323.947 192.807V193.053C323.947 193.354 323.988 193.637 324.07 193.902C324.156 194.164 324.279 194.395 324.439 194.594C324.604 194.793 324.801 194.949 325.031 195.062C325.266 195.176 325.531 195.232 325.828 195.232C326.211 195.232 326.535 195.154 326.801 194.998C327.066 194.842 327.299 194.633 327.498 194.371L328.154 194.893C328.018 195.1 327.844 195.297 327.633 195.484C327.422 195.672 327.162 195.824 326.854 195.941C326.549 196.059 326.188 196.117 325.77 196.117ZM330.586 191.014V196H329.502V189.66H330.527L330.586 191.014ZM330.328 192.59L329.877 192.572C329.881 192.139 329.945 191.738 330.07 191.371C330.195 191 330.371 190.678 330.598 190.404C330.824 190.131 331.094 189.92 331.406 189.771C331.723 189.619 332.072 189.543 332.455 189.543C332.768 189.543 333.049 189.586 333.299 189.672C333.549 189.754 333.762 189.887 333.938 190.07C334.117 190.254 334.254 190.492 334.348 190.785C334.441 191.074 334.488 191.428 334.488 191.846V196H333.398V191.834C333.398 191.502 333.35 191.236 333.252 191.037C333.154 190.834 333.012 190.688 332.824 190.598C332.637 190.504 332.406 190.457 332.133 190.457C331.863 190.457 331.617 190.514 331.395 190.627C331.176 190.74 330.986 190.896 330.826 191.096C330.67 191.295 330.547 191.523 330.457 191.781C330.371 192.035 330.328 192.305 330.328 192.59ZM338.789 189.66V190.492H335.361V189.66H338.789ZM336.521 188.119H337.605V194.43C337.605 194.645 337.639 194.807 337.705 194.916C337.771 195.025 337.857 195.098 337.963 195.133C338.068 195.168 338.182 195.186 338.303 195.186C338.393 195.186 338.486 195.178 338.584 195.162C338.686 195.143 338.762 195.127 338.812 195.115L338.818 196C338.732 196.027 338.619 196.053 338.479 196.076C338.342 196.104 338.176 196.117 337.98 196.117C337.715 196.117 337.471 196.064 337.248 195.959C337.025 195.854 336.848 195.678 336.715 195.432C336.586 195.182 336.521 194.846 336.521 194.424V188.119ZM344.502 191.201H345.275C345.654 191.201 345.967 191.139 346.213 191.014C346.463 190.885 346.648 190.711 346.77 190.492C346.895 190.27 346.957 190.02 346.957 189.742C346.957 189.414 346.902 189.139 346.793 188.916C346.684 188.693 346.52 188.525 346.301 188.412C346.082 188.299 345.805 188.242 345.469 188.242C345.164 188.242 344.895 188.303 344.66 188.424C344.43 188.541 344.248 188.709 344.115 188.928C343.986 189.146 343.922 189.404 343.922 189.701H342.838C342.838 189.268 342.947 188.873 343.166 188.518C343.385 188.162 343.691 187.879 344.086 187.668C344.484 187.457 344.945 187.352 345.469 187.352C345.984 187.352 346.436 187.443 346.822 187.627C347.209 187.807 347.51 188.076 347.725 188.436C347.939 188.791 348.047 189.234 348.047 189.766C348.047 189.98 347.996 190.211 347.895 190.457C347.797 190.699 347.643 190.926 347.432 191.137C347.225 191.348 346.955 191.521 346.623 191.658C346.291 191.791 345.893 191.857 345.428 191.857H344.502V191.201ZM344.502 192.092V191.441H345.428C345.971 191.441 346.42 191.506 346.775 191.635C347.131 191.764 347.41 191.936 347.613 192.15C347.82 192.365 347.965 192.602 348.047 192.859C348.133 193.113 348.176 193.367 348.176 193.621C348.176 194.02 348.107 194.373 347.971 194.682C347.838 194.99 347.648 195.252 347.402 195.467C347.16 195.682 346.875 195.844 346.547 195.953C346.219 196.062 345.861 196.117 345.475 196.117C345.104 196.117 344.754 196.064 344.426 195.959C344.102 195.854 343.814 195.701 343.564 195.502C343.314 195.299 343.119 195.051 342.979 194.758C342.838 194.461 342.768 194.123 342.768 193.744H343.852C343.852 194.041 343.916 194.301 344.045 194.523C344.178 194.746 344.365 194.92 344.607 195.045C344.854 195.166 345.143 195.227 345.475 195.227C345.807 195.227 346.092 195.17 346.33 195.057C346.572 194.939 346.758 194.764 346.887 194.529C347.02 194.295 347.086 194 347.086 193.645C347.086 193.289 347.012 192.998 346.863 192.771C346.715 192.541 346.504 192.371 346.23 192.262C345.961 192.148 345.643 192.092 345.275 192.092H344.502Z" fill="black"/>
<rect x="110.5" y="74.5" width="109" height="44" stroke="black"/>
<path d="M135.295 96.752V99.875C135.189 100.031 135.021 100.207 134.791 100.402C134.561 100.594 134.242 100.762 133.836 100.906C133.434 101.047 132.914 101.117 132.277 101.117C131.758 101.117 131.279 101.027 130.842 100.848C130.408 100.664 130.031 100.398 129.711 100.051C129.395 99.6992 129.148 99.2734 128.973 98.7734C128.801 98.2695 128.715 97.6992 128.715 97.0625V96.4004C128.715 95.7637 128.789 95.1953 128.938 94.6953C129.09 94.1953 129.312 93.7715 129.605 93.4238C129.898 93.0723 130.258 92.8066 130.684 92.627C131.109 92.4434 131.598 92.3516 132.148 92.3516C132.801 92.3516 133.346 92.4648 133.783 92.6914C134.225 92.9141 134.568 93.2227 134.814 93.6172C135.064 94.0117 135.225 94.4609 135.295 94.9648H134.164C134.113 94.6562 134.012 94.375 133.859 94.1211C133.711 93.8672 133.498 93.6641 133.221 93.5117C132.943 93.3555 132.586 93.2773 132.148 93.2773C131.754 93.2773 131.412 93.3496 131.123 93.4941C130.834 93.6387 130.596 93.8457 130.408 94.1152C130.221 94.3848 130.08 94.7109 129.986 95.0938C129.896 95.4766 129.852 95.9082 129.852 96.3887V97.0625C129.852 97.5547 129.908 97.9941 130.021 98.3809C130.139 98.7676 130.305 99.0977 130.52 99.3711C130.734 99.6406 130.99 99.8457 131.287 99.9863C131.588 100.127 131.92 100.197 132.283 100.197C132.686 100.197 133.012 100.164 133.262 100.098C133.512 100.027 133.707 99.9453 133.848 99.8516C133.988 99.7539 134.096 99.6621 134.17 99.5762V97.666H132.195V96.752H135.295ZM138.09 95.6562V101H137.006V94.6602H138.061L138.09 95.6562ZM140.07 94.625L140.064 95.6328C139.975 95.6133 139.889 95.6016 139.807 95.5977C139.729 95.5898 139.639 95.5859 139.537 95.5859C139.287 95.5859 139.066 95.625 138.875 95.7031C138.684 95.7812 138.521 95.8906 138.389 96.0312C138.256 96.1719 138.15 96.3398 138.072 96.5352C137.998 96.7266 137.949 96.9375 137.926 97.168L137.621 97.3438C137.621 96.9609 137.658 96.6016 137.732 96.2656C137.811 95.9297 137.93 95.6328 138.09 95.375C138.25 95.1133 138.453 94.9102 138.699 94.7656C138.949 94.6172 139.246 94.543 139.59 94.543C139.668 94.543 139.758 94.5527 139.859 94.5723C139.961 94.5879 140.031 94.6055 140.07 94.625ZM140.668 97.9004V97.7656C140.668 97.3086 140.734 96.8848 140.867 96.4941C141 96.0996 141.191 95.7578 141.441 95.4688C141.691 95.1758 141.994 94.9492 142.35 94.7891C142.705 94.625 143.104 94.543 143.545 94.543C143.99 94.543 144.391 94.625 144.746 94.7891C145.105 94.9492 145.41 95.1758 145.66 95.4688C145.914 95.7578 146.107 96.0996 146.24 96.4941C146.373 96.8848 146.439 97.3086 146.439 97.7656V97.9004C146.439 98.3574 146.373 98.7812 146.24 99.1719C146.107 99.5625 145.914 99.9043 145.66 100.197C145.41 100.486 145.107 100.713 144.752 100.877C144.4 101.037 144.002 101.117 143.557 101.117C143.111 101.117 142.711 101.037 142.355 100.877C142 100.713 141.695 100.486 141.441 100.197C141.191 99.9043 141 99.5625 140.867 99.1719C140.734 98.7812 140.668 98.3574 140.668 97.9004ZM141.752 97.7656V97.9004C141.752 98.2168 141.789 98.5156 141.863 98.7969C141.938 99.0742 142.049 99.3203 142.197 99.5352C142.35 99.75 142.539 99.9199 142.766 100.045C142.992 100.166 143.256 100.227 143.557 100.227C143.854 100.227 144.113 100.166 144.336 100.045C144.562 99.9199 144.75 99.75 144.898 99.5352C145.047 99.3203 145.158 99.0742 145.232 98.7969C145.311 98.5156 145.35 98.2168 145.35 97.9004V97.7656C145.35 97.4531 145.311 97.1582 145.232 96.8809C145.158 96.5996 145.045 96.3516 144.893 96.1367C144.744 95.918 144.557 95.7461 144.33 95.6211C144.107 95.4961 143.846 95.4336 143.545 95.4336C143.248 95.4336 142.986 95.4961 142.76 95.6211C142.537 95.7461 142.35 95.918 142.197 96.1367C142.049 96.3516 141.938 96.5996 141.863 96.8809C141.789 97.1582 141.752 97.4531 141.752 97.7656ZM151.678 99.5352V94.6602H152.768V101H151.73L151.678 99.5352ZM151.883 98.1992L152.334 98.1875C152.334 98.6094 152.289 99 152.199 99.3594C152.113 99.7148 151.973 100.023 151.777 100.285C151.582 100.547 151.326 100.752 151.01 100.9C150.693 101.045 150.309 101.117 149.855 101.117C149.547 101.117 149.264 101.072 149.006 100.982C148.752 100.893 148.533 100.754 148.35 100.566C148.166 100.379 148.023 100.135 147.922 99.834C147.824 99.5332 147.775 99.1719 147.775 98.75V94.6602H148.859V98.7617C148.859 99.0469 148.891 99.2832 148.953 99.4707C149.02 99.6543 149.107 99.8008 149.217 99.9102C149.33 100.016 149.455 100.09 149.592 100.133C149.732 100.176 149.877 100.197 150.025 100.197C150.486 100.197 150.852 100.109 151.121 99.9336C151.391 99.7539 151.584 99.5137 151.701 99.2129C151.822 98.9082 151.883 98.5703 151.883 98.1992ZM155.504 95.8789V103.438H154.414V94.6602H155.41L155.504 95.8789ZM159.775 97.7773V97.9004C159.775 98.3613 159.721 98.7891 159.611 99.1836C159.502 99.5742 159.342 99.9141 159.131 100.203C158.924 100.492 158.668 100.717 158.363 100.877C158.059 101.037 157.709 101.117 157.314 101.117C156.912 101.117 156.557 101.051 156.248 100.918C155.939 100.785 155.678 100.592 155.463 100.338C155.248 100.084 155.076 99.7793 154.947 99.4238C154.822 99.0684 154.736 98.668 154.689 98.2227V97.5664C154.736 97.0977 154.824 96.6777 154.953 96.3066C155.082 95.9355 155.252 95.6191 155.463 95.3574C155.678 95.0918 155.938 94.8906 156.242 94.7539C156.547 94.6133 156.898 94.543 157.297 94.543C157.695 94.543 158.049 94.6211 158.357 94.7773C158.666 94.9297 158.926 95.1484 159.137 95.4336C159.348 95.7188 159.506 96.0605 159.611 96.459C159.721 96.8535 159.775 97.293 159.775 97.7773ZM158.686 97.9004V97.7773C158.686 97.4609 158.652 97.1641 158.586 96.8867C158.52 96.6055 158.416 96.3594 158.275 96.1484C158.139 95.9336 157.963 95.7656 157.748 95.6445C157.533 95.5195 157.277 95.457 156.98 95.457C156.707 95.457 156.469 95.5039 156.266 95.5977C156.066 95.6914 155.896 95.8184 155.756 95.9785C155.615 96.1348 155.5 96.3145 155.41 96.5176C155.324 96.7168 155.26 96.9238 155.217 97.1387V98.6562C155.295 98.9297 155.404 99.1875 155.545 99.4297C155.686 99.668 155.873 99.8613 156.107 100.01C156.342 100.154 156.637 100.227 156.992 100.227C157.285 100.227 157.537 100.166 157.748 100.045C157.963 99.9199 158.139 99.75 158.275 99.5352C158.416 99.3203 158.52 99.0742 158.586 98.7969C158.652 98.5156 158.686 98.2168 158.686 97.9004ZM167.58 92.4219V101H166.496V93.7754L164.311 94.5723V93.5938L167.41 92.4219H167.58Z" fill="black"/>
<circle cx="190.5" cy="96.5" r="11.5" fill="#00FF19"/>
<rect x="110.5" y="167.5" width="109" height="44" stroke="black"/>
<path d="M135.295 189.752V192.875C135.189 193.031 135.021 193.207 134.791 193.402C134.561 193.594 134.242 193.762 133.836 193.906C133.434 194.047 132.914 194.117 132.277 194.117C131.758 194.117 131.279 194.027 130.842 193.848C130.408 193.664 130.031 193.398 129.711 193.051C129.395 192.699 129.148 192.273 128.973 191.773C128.801 191.27 128.715 190.699 128.715 190.062V189.4C128.715 188.764 128.789 188.195 128.938 187.695C129.09 187.195 129.312 186.771 129.605 186.424C129.898 186.072 130.258 185.807 130.684 185.627C131.109 185.443 131.598 185.352 132.148 185.352C132.801 185.352 133.346 185.465 133.783 185.691C134.225 185.914 134.568 186.223 134.814 186.617C135.064 187.012 135.225 187.461 135.295 187.965H134.164C134.113 187.656 134.012 187.375 133.859 187.121C133.711 186.867 133.498 186.664 133.221 186.512C132.943 186.355 132.586 186.277 132.148 186.277C131.754 186.277 131.412 186.35 131.123 186.494C130.834 186.639 130.596 186.846 130.408 187.115C130.221 187.385 130.08 187.711 129.986 188.094C129.896 188.477 129.852 188.908 129.852 189.389V190.062C129.852 190.555 129.908 190.994 130.021 191.381C130.139 191.768 130.305 192.098 130.52 192.371C130.734 192.641 130.99 192.846 131.287 192.986C131.588 193.127 131.92 193.197 132.283 193.197C132.686 193.197 133.012 193.164 133.262 193.098C133.512 193.027 133.707 192.945 133.848 192.852C133.988 192.754 134.096 192.662 134.17 192.576V190.666H132.195V189.752H135.295ZM138.09 188.656V194H137.006V187.66H138.061L138.09 188.656ZM140.07 187.625L140.064 188.633C139.975 188.613 139.889 188.602 139.807 188.598C139.729 188.59 139.639 188.586 139.537 188.586C139.287 188.586 139.066 188.625 138.875 188.703C138.684 188.781 138.521 188.891 138.389 189.031C138.256 189.172 138.15 189.34 138.072 189.535C137.998 189.727 137.949 189.938 137.926 190.168L137.621 190.344C137.621 189.961 137.658 189.602 137.732 189.266C137.811 188.93 137.93 188.633 138.09 188.375C138.25 188.113 138.453 187.91 138.699 187.766C138.949 187.617 139.246 187.543 139.59 187.543C139.668 187.543 139.758 187.553 139.859 187.572C139.961 187.588 140.031 187.605 140.07 187.625ZM140.668 190.9V190.766C140.668 190.309 140.734 189.885 140.867 189.494C141 189.1 141.191 188.758 141.441 188.469C141.691 188.176 141.994 187.949 142.35 187.789C142.705 187.625 143.104 187.543 143.545 187.543C143.99 187.543 144.391 187.625 144.746 187.789C145.105 187.949 145.41 188.176 145.66 188.469C145.914 188.758 146.107 189.1 146.24 189.494C146.373 189.885 146.439 190.309 146.439 190.766V190.9C146.439 191.357 146.373 191.781 146.24 192.172C146.107 192.562 145.914 192.904 145.66 193.197C145.41 193.486 145.107 193.713 144.752 193.877C144.4 194.037 144.002 194.117 143.557 194.117C143.111 194.117 142.711 194.037 142.355 193.877C142 193.713 141.695 193.486 141.441 193.197C141.191 192.904 141 192.562 140.867 192.172C140.734 191.781 140.668 191.357 140.668 190.9ZM141.752 190.766V190.9C141.752 191.217 141.789 191.516 141.863 191.797C141.938 192.074 142.049 192.32 142.197 192.535C142.35 192.75 142.539 192.92 142.766 193.045C142.992 193.166 143.256 193.227 143.557 193.227C143.854 193.227 144.113 193.166 144.336 193.045C144.562 192.92 144.75 192.75 144.898 192.535C145.047 192.32 145.158 192.074 145.232 191.797C145.311 191.516 145.35 191.217 145.35 190.9V190.766C145.35 190.453 145.311 190.158 145.232 189.881C145.158 189.6 145.045 189.352 144.893 189.137C144.744 188.918 144.557 188.746 144.33 188.621C144.107 188.496 143.846 188.434 143.545 188.434C143.248 188.434 142.986 188.496 142.76 188.621C142.537 188.746 142.35 188.918 142.197 189.137C142.049 189.352 141.938 189.6 141.863 189.881C141.789 190.158 141.752 190.453 141.752 190.766ZM151.678 192.535V187.66H152.768V194H151.73L151.678 192.535ZM151.883 191.199L152.334 191.188C152.334 191.609 152.289 192 152.199 192.359C152.113 192.715 151.973 193.023 151.777 193.285C151.582 193.547 151.326 193.752 151.01 193.9C150.693 194.045 150.309 194.117 149.855 194.117C149.547 194.117 149.264 194.072 149.006 193.982C148.752 193.893 148.533 193.754 148.35 193.566C148.166 193.379 148.023 193.135 147.922 192.834C147.824 192.533 147.775 192.172 147.775 191.75V187.66H148.859V191.762C148.859 192.047 148.891 192.283 148.953 192.471C149.02 192.654 149.107 192.801 149.217 192.91C149.33 193.016 149.455 193.09 149.592 193.133C149.732 193.176 149.877 193.197 150.025 193.197C150.486 193.197 150.852 193.109 151.121 192.934C151.391 192.754 151.584 192.514 151.701 192.213C151.822 191.908 151.883 191.57 151.883 191.199ZM155.504 188.879V196.438H154.414V187.66H155.41L155.504 188.879ZM159.775 190.777V190.9C159.775 191.361 159.721 191.789 159.611 192.184C159.502 192.574 159.342 192.914 159.131 193.203C158.924 193.492 158.668 193.717 158.363 193.877C158.059 194.037 157.709 194.117 157.314 194.117C156.912 194.117 156.557 194.051 156.248 193.918C155.939 193.785 155.678 193.592 155.463 193.338C155.248 193.084 155.076 192.779 154.947 192.424C154.822 192.068 154.736 191.668 154.689 191.223V190.566C154.736 190.098 154.824 189.678 154.953 189.307C155.082 188.936 155.252 188.619 155.463 188.357C155.678 188.092 155.938 187.891 156.242 187.754C156.547 187.613 156.898 187.543 157.297 187.543C157.695 187.543 158.049 187.621 158.357 187.777C158.666 187.93 158.926 188.148 159.137 188.434C159.348 188.719 159.506 189.061 159.611 189.459C159.721 189.854 159.775 190.293 159.775 190.777ZM158.686 190.9V190.777C158.686 190.461 158.652 190.164 158.586 189.887C158.52 189.605 158.416 189.359 158.275 189.148C158.139 188.934 157.963 188.766 157.748 188.645C157.533 188.52 157.277 188.457 156.98 188.457C156.707 188.457 156.469 188.504 156.266 188.598C156.066 188.691 155.896 188.818 155.756 188.979C155.615 189.135 155.5 189.314 155.41 189.518C155.324 189.717 155.26 189.924 155.217 190.139V191.656C155.295 191.93 155.404 192.188 155.545 192.43C155.686 192.668 155.873 192.861 156.107 193.01C156.342 193.154 156.637 193.227 156.992 193.227C157.285 193.227 157.537 193.166 157.748 193.045C157.963 192.92 158.139 192.75 158.275 192.535C158.416 192.32 158.52 192.074 158.586 191.797C158.652 191.516 158.686 191.217 158.686 190.9ZM169.607 193.109V194H164.023V193.221L166.818 190.109C167.162 189.727 167.428 189.402 167.615 189.137C167.807 188.867 167.939 188.627 168.014 188.416C168.092 188.201 168.131 187.982 168.131 187.76C168.131 187.479 168.072 187.225 167.955 186.998C167.842 186.768 167.674 186.584 167.451 186.447C167.229 186.311 166.959 186.242 166.643 186.242C166.264 186.242 165.947 186.316 165.693 186.465C165.443 186.609 165.256 186.812 165.131 187.074C165.006 187.336 164.943 187.637 164.943 187.977H163.859C163.859 187.496 163.965 187.057 164.176 186.658C164.387 186.26 164.699 185.943 165.113 185.709C165.527 185.471 166.037 185.352 166.643 185.352C167.182 185.352 167.643 185.447 168.025 185.639C168.408 185.826 168.701 186.092 168.904 186.436C169.111 186.775 169.215 187.174 169.215 187.631C169.215 187.881 169.172 188.135 169.086 188.393C169.004 188.646 168.889 188.9 168.74 189.154C168.596 189.408 168.426 189.658 168.23 189.904C168.039 190.15 167.834 190.393 167.615 190.631L165.33 193.109H169.607Z" fill="black"/>
<circle cx="190.5" cy="189.5" r="11.5" fill="#CC00FF"/>
<line x1="220" y1="96.5" x2="257" y2="96.5" stroke="black"/>
<line x1="220" y1="189.5" x2="256" y2="189.5" stroke="black"/>
<path d="M182.537 282.844C182.537 282.645 182.506 282.469 182.443 282.316C182.385 282.16 182.279 282.02 182.127 281.895C181.979 281.77 181.771 281.65 181.506 281.537C181.244 281.424 180.912 281.309 180.51 281.191C180.088 281.066 179.707 280.928 179.367 280.775C179.027 280.619 178.736 280.441 178.494 280.242C178.252 280.043 178.066 279.814 177.938 279.557C177.809 279.299 177.744 279.004 177.744 278.672C177.744 278.34 177.812 278.033 177.949 277.752C178.086 277.471 178.281 277.227 178.535 277.02C178.793 276.809 179.1 276.645 179.455 276.527C179.811 276.41 180.207 276.352 180.645 276.352C181.285 276.352 181.828 276.475 182.273 276.721C182.723 276.963 183.064 277.281 183.299 277.676C183.533 278.066 183.65 278.484 183.65 278.93H182.525C182.525 278.609 182.457 278.326 182.32 278.08C182.184 277.83 181.977 277.635 181.699 277.494C181.422 277.35 181.07 277.277 180.645 277.277C180.242 277.277 179.91 277.338 179.648 277.459C179.387 277.58 179.191 277.744 179.062 277.951C178.938 278.158 178.875 278.395 178.875 278.66C178.875 278.84 178.912 279.004 178.986 279.152C179.064 279.297 179.184 279.432 179.344 279.557C179.508 279.682 179.715 279.797 179.965 279.902C180.219 280.008 180.521 280.109 180.873 280.207C181.357 280.344 181.775 280.496 182.127 280.664C182.479 280.832 182.768 281.021 182.994 281.232C183.225 281.439 183.395 281.676 183.504 281.941C183.617 282.203 183.674 282.5 183.674 282.832C183.674 283.18 183.604 283.494 183.463 283.775C183.322 284.057 183.121 284.297 182.859 284.496C182.598 284.695 182.283 284.85 181.916 284.959C181.553 285.064 181.146 285.117 180.697 285.117C180.303 285.117 179.914 285.062 179.531 284.953C179.152 284.844 178.807 284.68 178.494 284.461C178.186 284.242 177.938 283.973 177.75 283.652C177.566 283.328 177.475 282.953 177.475 282.527H178.6C178.6 282.82 178.656 283.072 178.77 283.283C178.883 283.49 179.037 283.662 179.232 283.799C179.432 283.936 179.656 284.037 179.906 284.104C180.16 284.166 180.424 284.197 180.697 284.197C181.092 284.197 181.426 284.143 181.699 284.033C181.973 283.924 182.18 283.768 182.32 283.564C182.465 283.361 182.537 283.121 182.537 282.844ZM186.557 283.875L188.186 278.66H188.9L188.76 279.697L187.102 285H186.404L186.557 283.875ZM185.461 278.66L186.85 283.934L186.949 285H186.217L184.377 278.66H185.461ZM190.459 283.893L191.783 278.66H192.861L191.021 285H190.295L190.459 283.893ZM189.059 278.66L190.652 283.787L190.834 285H190.143L188.438 279.686L188.297 278.66H189.059ZM195.152 278.66V285H194.062V278.66H195.152ZM193.98 276.979C193.98 276.803 194.033 276.654 194.139 276.533C194.248 276.412 194.408 276.352 194.619 276.352C194.826 276.352 194.984 276.412 195.094 276.533C195.207 276.654 195.264 276.803 195.264 276.979C195.264 277.146 195.207 277.291 195.094 277.412C194.984 277.529 194.826 277.588 194.619 277.588C194.408 277.588 194.248 277.529 194.139 277.412C194.033 277.291 193.98 277.146 193.98 276.979ZM199.547 278.66V279.492H196.119V278.66H199.547ZM197.279 277.119H198.363V283.43C198.363 283.645 198.396 283.807 198.463 283.916C198.529 284.025 198.615 284.098 198.721 284.133C198.826 284.168 198.939 284.186 199.061 284.186C199.15 284.186 199.244 284.178 199.342 284.162C199.443 284.143 199.52 284.127 199.57 284.115L199.576 285C199.49 285.027 199.377 285.053 199.236 285.076C199.1 285.104 198.934 285.117 198.738 285.117C198.473 285.117 198.229 285.064 198.006 284.959C197.783 284.854 197.605 284.678 197.473 284.432C197.344 284.182 197.279 283.846 197.279 283.424V277.119ZM203.355 284.227C203.613 284.227 203.852 284.174 204.07 284.068C204.289 283.963 204.469 283.818 204.609 283.635C204.75 283.447 204.83 283.234 204.85 282.996H205.881C205.861 283.371 205.734 283.721 205.5 284.045C205.27 284.365 204.967 284.625 204.592 284.824C204.217 285.02 203.805 285.117 203.355 285.117C202.879 285.117 202.463 285.033 202.107 284.865C201.756 284.697 201.463 284.467 201.229 284.174C200.998 283.881 200.824 283.545 200.707 283.166C200.594 282.783 200.537 282.379 200.537 281.953V281.707C200.537 281.281 200.594 280.879 200.707 280.5C200.824 280.117 200.998 279.779 201.229 279.486C201.463 279.193 201.756 278.963 202.107 278.795C202.463 278.627 202.879 278.543 203.355 278.543C203.852 278.543 204.285 278.645 204.656 278.848C205.027 279.047 205.318 279.32 205.529 279.668C205.744 280.012 205.861 280.402 205.881 280.84H204.85C204.83 280.578 204.756 280.342 204.627 280.131C204.502 279.92 204.33 279.752 204.111 279.627C203.896 279.498 203.645 279.434 203.355 279.434C203.023 279.434 202.744 279.5 202.518 279.633C202.295 279.762 202.117 279.938 201.984 280.16C201.855 280.379 201.762 280.623 201.703 280.893C201.648 281.158 201.621 281.43 201.621 281.707V281.953C201.621 282.23 201.648 282.504 201.703 282.773C201.758 283.043 201.85 283.287 201.979 283.506C202.111 283.725 202.289 283.9 202.512 284.033C202.738 284.162 203.02 284.227 203.355 284.227ZM208.184 276V285H207.1V276H208.184ZM207.926 281.59L207.475 281.572C207.479 281.139 207.543 280.738 207.668 280.371C207.793 280 207.969 279.678 208.195 279.404C208.422 279.131 208.691 278.92 209.004 278.771C209.32 278.619 209.67 278.543 210.053 278.543C210.365 278.543 210.646 278.586 210.896 278.672C211.146 278.754 211.359 278.887 211.535 279.07C211.715 279.254 211.852 279.492 211.945 279.785C212.039 280.074 212.086 280.428 212.086 280.846V285H210.996V280.834C210.996 280.502 210.947 280.236 210.85 280.037C210.752 279.834 210.609 279.688 210.422 279.598C210.234 279.504 210.004 279.457 209.73 279.457C209.461 279.457 209.215 279.514 208.992 279.627C208.773 279.74 208.584 279.896 208.424 280.096C208.268 280.295 208.145 280.523 208.055 280.781C207.969 281.035 207.926 281.305 207.926 281.59ZM221.396 282.844C221.396 282.645 221.365 282.469 221.303 282.316C221.244 282.16 221.139 282.02 220.986 281.895C220.838 281.77 220.631 281.65 220.365 281.537C220.104 281.424 219.771 281.309 219.369 281.191C218.947 281.066 218.566 280.928 218.227 280.775C217.887 280.619 217.596 280.441 217.354 280.242C217.111 280.043 216.926 279.814 216.797 279.557C216.668 279.299 216.604 279.004 216.604 278.672C216.604 278.34 216.672 278.033 216.809 277.752C216.945 277.471 217.141 277.227 217.395 277.02C217.652 276.809 217.959 276.645 218.314 276.527C218.67 276.41 219.066 276.352 219.504 276.352C220.145 276.352 220.688 276.475 221.133 276.721C221.582 276.963 221.924 277.281 222.158 277.676C222.393 278.066 222.51 278.484 222.51 278.93H221.385C221.385 278.609 221.316 278.326 221.18 278.08C221.043 277.83 220.836 277.635 220.559 277.494C220.281 277.35 219.93 277.277 219.504 277.277C219.102 277.277 218.77 277.338 218.508 277.459C218.246 277.58 218.051 277.744 217.922 277.951C217.797 278.158 217.734 278.395 217.734 278.66C217.734 278.84 217.771 279.004 217.846 279.152C217.924 279.297 218.043 279.432 218.203 279.557C218.367 279.682 218.574 279.797 218.824 279.902C219.078 280.008 219.381 280.109 219.732 280.207C220.217 280.344 220.635 280.496 220.986 280.664C221.338 280.832 221.627 281.021 221.854 281.232C222.084 281.439 222.254 281.676 222.363 281.941C222.477 282.203 222.533 282.5 222.533 282.832C222.533 283.18 222.463 283.494 222.322 283.775C222.182 284.057 221.98 284.297 221.719 284.496C221.457 284.695 221.143 284.85 220.775 284.959C220.412 285.064 220.006 285.117 219.557 285.117C219.162 285.117 218.773 285.062 218.391 284.953C218.012 284.844 217.666 284.68 217.354 284.461C217.045 284.242 216.797 283.973 216.609 283.652C216.426 283.328 216.334 282.953 216.334 282.527H217.459C217.459 282.82 217.516 283.072 217.629 283.283C217.742 283.49 217.896 283.662 218.092 283.799C218.291 283.936 218.516 284.037 218.766 284.104C219.02 284.166 219.283 284.197 219.557 284.197C219.951 284.197 220.285 284.143 220.559 284.033C220.832 283.924 221.039 283.768 221.18 283.564C221.324 283.361 221.396 283.121 221.396 282.844ZM226.465 278.66V279.492H223.037V278.66H226.465ZM224.197 277.119H225.281V283.43C225.281 283.645 225.314 283.807 225.381 283.916C225.447 284.025 225.533 284.098 225.639 284.133C225.744 284.168 225.857 284.186 225.979 284.186C226.068 284.186 226.162 284.178 226.26 284.162C226.361 284.143 226.438 284.127 226.488 284.115L226.494 285C226.408 285.027 226.295 285.053 226.154 285.076C226.018 285.104 225.852 285.117 225.656 285.117C225.391 285.117 225.146 285.064 224.924 284.959C224.701 284.854 224.523 284.678 224.391 284.432C224.262 284.182 224.197 283.846 224.197 283.424V277.119ZM229.518 284.344L231.281 278.66H232.441L229.898 285.979C229.84 286.135 229.762 286.303 229.664 286.482C229.57 286.666 229.449 286.84 229.301 287.004C229.152 287.168 228.973 287.301 228.762 287.402C228.555 287.508 228.307 287.561 228.018 287.561C227.932 287.561 227.822 287.549 227.689 287.525C227.557 287.502 227.463 287.482 227.408 287.467L227.402 286.588C227.434 286.592 227.482 286.596 227.549 286.6C227.619 286.607 227.668 286.611 227.695 286.611C227.941 286.611 228.15 286.578 228.322 286.512C228.494 286.449 228.639 286.342 228.756 286.189C228.877 286.041 228.98 285.836 229.066 285.574L229.518 284.344ZM228.223 278.66L229.869 283.582L230.15 284.725L229.371 285.123L227.039 278.66H228.223ZM234.598 276V285H233.508V276H234.598ZM238.969 285.117C238.527 285.117 238.127 285.043 237.768 284.895C237.412 284.742 237.105 284.529 236.848 284.256C236.594 283.982 236.398 283.658 236.262 283.283C236.125 282.908 236.057 282.498 236.057 282.053V281.807C236.057 281.291 236.133 280.832 236.285 280.43C236.438 280.023 236.645 279.68 236.906 279.398C237.168 279.117 237.465 278.904 237.797 278.76C238.129 278.615 238.473 278.543 238.828 278.543C239.281 278.543 239.672 278.621 240 278.777C240.332 278.934 240.604 279.152 240.814 279.434C241.025 279.711 241.182 280.039 241.283 280.418C241.385 280.793 241.436 281.203 241.436 281.648V282.135H236.701V281.25H240.352V281.168C240.336 280.887 240.277 280.613 240.176 280.348C240.078 280.082 239.922 279.863 239.707 279.691C239.492 279.52 239.199 279.434 238.828 279.434C238.582 279.434 238.355 279.486 238.148 279.592C237.941 279.693 237.764 279.846 237.615 280.049C237.467 280.252 237.352 280.5 237.27 280.793C237.188 281.086 237.146 281.424 237.146 281.807V282.053C237.146 282.354 237.188 282.637 237.27 282.902C237.355 283.164 237.479 283.395 237.639 283.594C237.803 283.793 238 283.949 238.23 284.062C238.465 284.176 238.73 284.232 239.027 284.232C239.41 284.232 239.734 284.154 240 283.998C240.266 283.842 240.498 283.633 240.697 283.371L241.354 283.893C241.217 284.1 241.043 284.297 240.832 284.484C240.621 284.672 240.361 284.824 240.053 284.941C239.748 285.059 239.387 285.117 238.969 285.117ZM249.123 276.422V285H248.039V277.775L245.854 278.572V277.594L248.953 276.422H249.123Z" fill="black"/>
<rect x="110.5" y="358.5" width="224" height="37" fill="#C4C4C4" stroke="white"/>
<rect x="155.5" y="364.5" width="10" height="10" stroke="white"/>
<rect x="173.5" y="364.5" width="10" height="10" stroke="white"/>
<rect x="119.5" y="380.5" width="10" height="10" stroke="white"/>
<rect x="137.5" y="380.5" width="10" height="10" stroke="white"/>
<rect x="155.5" y="380.5" width="10" height="10" stroke="white"/>
<rect x="173.5" y="380.5" width="10" height="10" stroke="white"/>
<rect x="137.5" y="364.5" width="10" height="10" stroke="white"/>
<rect x="119.5" y="364.5" width="10" height="10" stroke="white"/>
<path d="M182.537 350.844C182.537 350.645 182.506 350.469 182.443 350.316C182.385 350.16 182.279 350.02 182.127 349.895C181.979 349.77 181.771 349.65 181.506 349.537C181.244 349.424 180.912 349.309 180.51 349.191C180.088 349.066 179.707 348.928 179.367 348.775C179.027 348.619 178.736 348.441 178.494 348.242C178.252 348.043 178.066 347.814 177.938 347.557C177.809 347.299 177.744 347.004 177.744 346.672C177.744 346.34 177.812 346.033 177.949 345.752C178.086 345.471 178.281 345.227 178.535 345.02C178.793 344.809 179.1 344.645 179.455 344.527C179.811 344.41 180.207 344.352 180.645 344.352C181.285 344.352 181.828 344.475 182.273 344.721C182.723 344.963 183.064 345.281 183.299 345.676C183.533 346.066 183.65 346.484 183.65 346.93H182.525C182.525 346.609 182.457 346.326 182.32 346.08C182.184 345.83 181.977 345.635 181.699 345.494C181.422 345.35 181.07 345.277 180.645 345.277C180.242 345.277 179.91 345.338 179.648 345.459C179.387 345.58 179.191 345.744 179.062 345.951C178.938 346.158 178.875 346.395 178.875 346.66C178.875 346.84 178.912 347.004 178.986 347.152C179.064 347.297 179.184 347.432 179.344 347.557C179.508 347.682 179.715 347.797 179.965 347.902C180.219 348.008 180.521 348.109 180.873 348.207C181.357 348.344 181.775 348.496 182.127 348.664C182.479 348.832 182.768 349.021 182.994 349.232C183.225 349.439 183.395 349.676 183.504 349.941C183.617 350.203 183.674 350.5 183.674 350.832C183.674 351.18 183.604 351.494 183.463 351.775C183.322 352.057 183.121 352.297 182.859 352.496C182.598 352.695 182.283 352.85 181.916 352.959C181.553 353.064 181.146 353.117 180.697 353.117C180.303 353.117 179.914 353.062 179.531 352.953C179.152 352.844 178.807 352.68 178.494 352.461C178.186 352.242 177.938 351.973 177.75 351.652C177.566 351.328 177.475 350.953 177.475 350.527H178.6C178.6 350.82 178.656 351.072 178.77 351.283C178.883 351.49 179.037 351.662 179.232 351.799C179.432 351.936 179.656 352.037 179.906 352.104C180.16 352.166 180.424 352.197 180.697 352.197C181.092 352.197 181.426 352.143 181.699 352.033C181.973 351.924 182.18 351.768 182.32 351.564C182.465 351.361 182.537 351.121 182.537 350.844ZM186.557 351.875L188.186 346.66H188.9L188.76 347.697L187.102 353H186.404L186.557 351.875ZM185.461 346.66L186.85 351.934L186.949 353H186.217L184.377 346.66H185.461ZM190.459 351.893L191.783 346.66H192.861L191.021 353H190.295L190.459 351.893ZM189.059 346.66L190.652 351.787L190.834 353H190.143L188.438 347.686L188.297 346.66H189.059ZM195.152 346.66V353H194.062V346.66H195.152ZM193.98 344.979C193.98 344.803 194.033 344.654 194.139 344.533C194.248 344.412 194.408 344.352 194.619 344.352C194.826 344.352 194.984 344.412 195.094 344.533C195.207 344.654 195.264 344.803 195.264 344.979C195.264 345.146 195.207 345.291 195.094 345.412C194.984 345.529 194.826 345.588 194.619 345.588C194.408 345.588 194.248 345.529 194.139 345.412C194.033 345.291 193.98 345.146 193.98 344.979ZM199.547 346.66V347.492H196.119V346.66H199.547ZM197.279 345.119H198.363V351.43C198.363 351.645 198.396 351.807 198.463 351.916C198.529 352.025 198.615 352.098 198.721 352.133C198.826 352.168 198.939 352.186 199.061 352.186C199.15 352.186 199.244 352.178 199.342 352.162C199.443 352.143 199.52 352.127 199.57 352.115L199.576 353C199.49 353.027 199.377 353.053 199.236 353.076C199.1 353.104 198.934 353.117 198.738 353.117C198.473 353.117 198.229 353.064 198.006 352.959C197.783 352.854 197.605 352.678 197.473 352.432C197.344 352.182 197.279 351.846 197.279 351.424V345.119ZM203.355 352.227C203.613 352.227 203.852 352.174 204.07 352.068C204.289 351.963 204.469 351.818 204.609 351.635C204.75 351.447 204.83 351.234 204.85 350.996H205.881C205.861 351.371 205.734 351.721 205.5 352.045C205.27 352.365 204.967 352.625 204.592 352.824C204.217 353.02 203.805 353.117 203.355 353.117C202.879 353.117 202.463 353.033 202.107 352.865C201.756 352.697 201.463 352.467 201.229 352.174C200.998 351.881 200.824 351.545 200.707 351.166C200.594 350.783 200.537 350.379 200.537 349.953V349.707C200.537 349.281 200.594 348.879 200.707 348.5C200.824 348.117 200.998 347.779 201.229 347.486C201.463 347.193 201.756 346.963 202.107 346.795C202.463 346.627 202.879 346.543 203.355 346.543C203.852 346.543 204.285 346.645 204.656 346.848C205.027 347.047 205.318 347.32 205.529 347.668C205.744 348.012 205.861 348.402 205.881 348.84H204.85C204.83 348.578 204.756 348.342 204.627 348.131C204.502 347.92 204.33 347.752 204.111 347.627C203.896 347.498 203.645 347.434 203.355 347.434C203.023 347.434 202.744 347.5 202.518 347.633C202.295 347.762 202.117 347.938 201.984 348.16C201.855 348.379 201.762 348.623 201.703 348.893C201.648 349.158 201.621 349.43 201.621 349.707V349.953C201.621 350.23 201.648 350.504 201.703 350.773C201.758 351.043 201.85 351.287 201.979 351.506C202.111 351.725 202.289 351.9 202.512 352.033C202.738 352.162 203.02 352.227 203.355 352.227ZM208.184 344V353H207.1V344H208.184ZM207.926 349.59L207.475 349.572C207.479 349.139 207.543 348.738 207.668 348.371C207.793 348 207.969 347.678 208.195 347.404C208.422 347.131 208.691 346.92 209.004 346.771C209.32 346.619 209.67 346.543 210.053 346.543C210.365 346.543 210.646 346.586 210.896 346.672C211.146 346.754 211.359 346.887 211.535 347.07C211.715 347.254 211.852 347.492 211.945 347.785C212.039 348.074 212.086 348.428 212.086 348.846V353H210.996V348.834C210.996 348.502 210.947 348.236 210.85 348.037C210.752 347.834 210.609 347.688 210.422 347.598C210.234 347.504 210.004 347.457 209.73 347.457C209.461 347.457 209.215 347.514 208.992 347.627C208.773 347.74 208.584 347.896 208.424 348.096C208.268 348.295 208.145 348.523 208.055 348.781C207.969 349.035 207.926 349.305 207.926 349.59ZM221.396 350.844C221.396 350.645 221.365 350.469 221.303 350.316C221.244 350.16 221.139 350.02 220.986 349.895C220.838 349.77 220.631 349.65 220.365 349.537C220.104 349.424 219.771 349.309 219.369 349.191C218.947 349.066 218.566 348.928 218.227 348.775C217.887 348.619 217.596 348.441 217.354 348.242C217.111 348.043 216.926 347.814 216.797 347.557C216.668 347.299 216.604 347.004 216.604 346.672C216.604 346.34 216.672 346.033 216.809 345.752C216.945 345.471 217.141 345.227 217.395 345.02C217.652 344.809 217.959 344.645 218.314 344.527C218.67 344.41 219.066 344.352 219.504 344.352C220.145 344.352 220.688 344.475 221.133 344.721C221.582 344.963 221.924 345.281 222.158 345.676C222.393 346.066 222.51 346.484 222.51 346.93H221.385C221.385 346.609 221.316 346.326 221.18 346.08C221.043 345.83 220.836 345.635 220.559 345.494C220.281 345.35 219.93 345.277 219.504 345.277C219.102 345.277 218.77 345.338 218.508 345.459C218.246 345.58 218.051 345.744 217.922 345.951C217.797 346.158 217.734 346.395 217.734 346.66C217.734 346.84 217.771 347.004 217.846 347.152C217.924 347.297 218.043 347.432 218.203 347.557C218.367 347.682 218.574 347.797 218.824 347.902C219.078 348.008 219.381 348.109 219.732 348.207C220.217 348.344 220.635 348.496 220.986 348.664C221.338 348.832 221.627 349.021 221.854 349.232C222.084 349.439 222.254 349.676 222.363 349.941C222.477 350.203 222.533 350.5 222.533 350.832C222.533 351.18 222.463 351.494 222.322 351.775C222.182 352.057 221.98 352.297 221.719 352.496C221.457 352.695 221.143 352.85 220.775 352.959C220.412 353.064 220.006 353.117 219.557 353.117C219.162 353.117 218.773 353.062 218.391 352.953C218.012 352.844 217.666 352.68 217.354 352.461C217.045 352.242 216.797 351.973 216.609 351.652C216.426 351.328 216.334 350.953 216.334 350.527H217.459C217.459 350.82 217.516 351.072 217.629 351.283C217.742 351.49 217.896 351.662 218.092 351.799C218.291 351.936 218.516 352.037 218.766 352.104C219.02 352.166 219.283 352.197 219.557 352.197C219.951 352.197 220.285 352.143 220.559 352.033C220.832 351.924 221.039 351.768 221.18 351.564C221.324 351.361 221.396 351.121 221.396 350.844ZM226.465 346.66V347.492H223.037V346.66H226.465ZM224.197 345.119H225.281V351.43C225.281 351.645 225.314 351.807 225.381 351.916C225.447 352.025 225.533 352.098 225.639 352.133C225.744 352.168 225.857 352.186 225.979 352.186C226.068 352.186 226.162 352.178 226.26 352.162C226.361 352.143 226.438 352.127 226.488 352.115L226.494 353C226.408 353.027 226.295 353.053 226.154 353.076C226.018 353.104 225.852 353.117 225.656 353.117C225.391 353.117 225.146 353.064 224.924 352.959C224.701 352.854 224.523 352.678 224.391 352.432C224.262 352.182 224.197 351.846 224.197 351.424V345.119ZM229.518 352.344L231.281 346.66H232.441L229.898 353.979C229.84 354.135 229.762 354.303 229.664 354.482C229.57 354.666 229.449 354.84 229.301 355.004C229.152 355.168 228.973 355.301 228.762 355.402C228.555 355.508 228.307 355.561 228.018 355.561C227.932 355.561 227.822 355.549 227.689 355.525C227.557 355.502 227.463 355.482 227.408 355.467L227.402 354.588C227.434 354.592 227.482 354.596 227.549 354.6C227.619 354.607 227.668 354.611 227.695 354.611C227.941 354.611 228.15 354.578 228.322 354.512C228.494 354.449 228.639 354.342 228.756 354.189C228.877 354.041 228.98 353.836 229.066 353.574L229.518 352.344ZM228.223 346.66L229.869 351.582L230.15 352.725L229.371 353.123L227.039 346.66H228.223ZM234.598 344V353H233.508V344H234.598ZM238.969 353.117C238.527 353.117 238.127 353.043 237.768 352.895C237.412 352.742 237.105 352.529 236.848 352.256C236.594 351.982 236.398 351.658 236.262 351.283C236.125 350.908 236.057 350.498 236.057 350.053V349.807C236.057 349.291 236.133 348.832 236.285 348.43C236.438 348.023 236.645 347.68 236.906 347.398C237.168 347.117 237.465 346.904 237.797 346.76C238.129 346.615 238.473 346.543 238.828 346.543C239.281 346.543 239.672 346.621 240 346.777C240.332 346.934 240.604 347.152 240.814 347.434C241.025 347.711 241.182 348.039 241.283 348.418C241.385 348.793 241.436 349.203 241.436 349.648V350.135H236.701V349.25H240.352V349.168C240.336 348.887 240.277 348.613 240.176 348.348C240.078 348.082 239.922 347.863 239.707 347.691C239.492 347.52 239.199 347.434 238.828 347.434C238.582 347.434 238.355 347.486 238.148 347.592C237.941 347.693 237.764 347.846 237.615 348.049C237.467 348.252 237.352 348.5 237.27 348.793C237.188 349.086 237.146 349.424 237.146 349.807V350.053C237.146 350.354 237.188 350.637 237.27 350.902C237.355 351.164 237.479 351.395 237.639 351.594C237.803 351.793 238 351.949 238.23 352.062C238.465 352.176 238.73 352.232 239.027 352.232C239.41 352.232 239.734 352.154 240 351.998C240.266 351.842 240.498 351.633 240.697 351.371L241.354 351.893C241.217 352.1 241.043 352.297 240.832 352.484C240.621 352.672 240.361 352.824 240.053 352.941C239.748 353.059 239.387 353.117 238.969 353.117ZM251.15 352.109V353H245.566V352.221L248.361 349.109C248.705 348.727 248.971 348.402 249.158 348.137C249.35 347.867 249.482 347.627 249.557 347.416C249.635 347.201 249.674 346.982 249.674 346.76C249.674 346.479 249.615 346.225 249.498 345.998C249.385 345.768 249.217 345.584 248.994 345.447C248.771 345.311 248.502 345.242 248.186 345.242C247.807 345.242 247.49 345.316 247.236 345.465C246.986 345.609 246.799 345.812 246.674 346.074C246.549 346.336 246.486 346.637 246.486 346.977H245.402C245.402 346.496 245.508 346.057 245.719 345.658C245.93 345.26 246.242 344.943 246.656 344.709C247.07 344.471 247.58 344.352 248.186 344.352C248.725 344.352 249.186 344.447 249.568 344.639C249.951 344.826 250.244 345.092 250.447 345.436C250.654 345.775 250.758 346.174 250.758 346.631C250.758 346.881 250.715 347.135 250.629 347.393C250.547 347.646 250.432 347.9 250.283 348.154C250.139 348.408 249.969 348.658 249.773 348.904C249.582 349.15 249.377 349.393 249.158 349.631L246.873 352.109H251.15Z" fill="black"/>
</svg>
