<svg xmlns="http://www.w3.org/2000/svg" version="1.1" xmlns:xlink="http://www.w3.org/1999/xlink" xmlns:svgjs="http://svgjs.com/svgjs" width="1440" height="560" preserveAspectRatio="none" viewBox="0 0 1440 560"><g mask="url(&quot;#SvgjsMask1280&quot;)" fill="none"><rect width="1440" height="560" x="0" y="0" fill="url(#SvgjsLinearGradient1281)"></rect><path d="M1440 0L1135.12 0L1440 50.71z" fill="rgba(255, 255, 255, .1)"></path><path d="M1135.12 0L1440 50.71L1440 324.44L622.7899999999998 0z" fill="rgba(255, 255, 255, .075)"></path><path d="M622.79 0L1440 324.44L1440 364.79L422.05999999999995 0z" fill="rgba(255, 255, 255, .05)"></path><path d="M422.05999999999995 0L1440 364.79L1440 380.72L270.53999999999996 0z" fill="rgba(255, 255, 255, .025)"></path><path d="M0 560L150.3 560L0 499.86z" fill="rgba(0, 0, 0, .1)"></path><path d="M0 499.86L150.3 560L804.1600000000001 560L0 387.04z" fill="rgba(0, 0, 0, .075)"></path><path d="M0 387.04L804.1600000000001 560L1012.1300000000001 560L0 357.25z" fill="rgba(0, 0, 0, .05)"></path><path d="M0 357.25L1012.1300000000001 560L1302.8500000000001 560L0 204.4z" fill="rgba(0, 0, 0, .025)"></path></g><defs><mask id="SvgjsMask1280"><rect width="1440" height="560" fill="#ffffff"></rect></mask><linearGradient x1="15.28%" y1="-39.29%" x2="84.72%" y2="139.29%" gradientUnits="userSpaceOnUse" id="SvgjsLinearGradient1281"><stop stop-color="rgba(54, 54, 54, 1)" offset="0"></stop><stop stop-color="rgba(0, 0, 0, 1)" offset="1"></stop></linearGradient></defs></svg>