<?xml version="1.0" encoding="UTF-8"?>
<!DOCTYPE svg PUBLIC "-//W3C//DTD SVG 1.1//EN" "http://www.w3.org/Graphics/SVG/1.1/DTD/svg11.dtd">
<!-- Creator: CorelDRAW 2021 (64 Bit) -->
<svg xmlns="http://www.w3.org/2000/svg" xml:space="preserve" width="132.292mm" height="132.292mm" version="1.1" style="shape-rendering:geometricPrecision; text-rendering:geometricPrecision; image-rendering:optimizeQuality; fill-rule:evenodd; clip-rule:evenodd"
viewBox="0 0 13229.16 13229.16"
 xmlns:xlink="http://www.w3.org/1999/xlink"
 xmlns:xodm="http://www.corel.com/coreldraw/odm/2003">
 <defs>
  <style type="text/css">
   <![CDATA[
    .fil1 {fill:black}
    .fil0 {fill:#FEFEFE}
   ]]>
  </style>
 </defs>
 <g id="Camada_x0020_1">
  <metadata id="CorelCorpID_0Corel-Layer"/>
  <g id="_2366147421216">
   <path class="fil0" d="M2761.46 2693.12l0 -37 7805.44 0 0 37 221.96 0 0 36.98 73.99 0 0 36.99 36.99 0 0 37 37 0 0 36.99 36.99 0 0 37 36.98 0 0 36.99 37 0 0 73.98 36.99 0 0 110.99 37 0 0 4439.11 -37 0 0 73.98 -1331.73 0 0 36.99 -37 0 0 1294.75 -36.99 0 0 73.99 -1331.74 0 0 36.99 -36.98 0 0 1294.74 -36.99 0 0 37 -37 0 0 36.99 -3181.37 0 0 -73.99 -36.98 0 0 -36.99 -37 0 0 -1294.74 -1331.73 0 0 -73.99 -37 0 0 -37 -36.99 0 0 -1294.74 -1331.74 0 0 -73.98 -36.99 0 0 -36.99 -37 0 0 -4328.15 37 0 0 -73.97 36.99 0 0 -110.99 37 0 0 -73.98 36.99 0 0 -36.99 37 0 0 -37 36.98 0 0 -36.99 36.99 0 0 -37 37 0 0 -36.99 73.99 0 0 -36.98 221.95 0zm-739.85 -2071.6l-147.97 0 0 37 -147.97 0 0 73.99 -110.98 0 0 36.98 -73.99 0 0 37 -73.98 0 0 36.99 -73.99 0 0 37 -36.99 0 0 36.99 -37 0 0 37 -36.98 0 0 36.98 -36.99 0 0 36.99 -73.99 0 0 37 -37 0 0 73.99 -36.99 0 0 36.99 -36.98 0 0 36.98 -37 0 0 37 -36.99 0 0 36.99 -37 0 0 73.99 -36.99 0 0 73.98 -37 0 0 73.99 -36.98 0 0 73.99 -37 0 0 36.99 -36.99 0 0 147.97 -37 0 0 147.97 -36.99 0 0 9285.15 36.99 0 0 184.96 37 0 0 110.99 36.99 0 0 36.98 37 0 0 73.99 36.98 0 0 73.99 37 0 0 73.97 36.99 0 0 73.99 37 0 0 37 36.99 0 0 36.99 37 0 0 73.98 36.98 0 0 36.99 36.99 0 0 37 37 0 0 36.99 36.99 0 0 37 37 0 0 36.99 73.97 0 0 36.98 37 0 0 37 36.99 0 0 36.99 73.99 0 0 37 37 0 0 36.99 73.97 0 0 37 110.99 0 0 36.98 110.97 0 0 73.99 147.98 0 0 37 221.94 0 0 36.99 8989.22 0 0 -36.99 184.96 0 0 -37 184.97 0 0 -73.99 110.97 0 0 -36.98 73.99 0 0 -37 73.99 0 0 -36.99 73.97 0 0 -37 73.99 0 0 -73.99 73.99 0 0 -36.98 37 0 0 -36.99 36.98 0 0 -37 73.99 0 0 -36.99 36.99 0 0 -73.99 37 0 0 -36.98 36.99 0 0 -37 36.98 0 0 -73.99 37 0 0 -36.99 36.99 0 0 -37 37 0 0 -73.97 36.99 0 0 -73.99 37 0 0 -73.99 36.98 0 0 -147.97 73.99 0 0 -184.96 37 0 0 -5067.99 36.99 0 0 -4069.2 -36.99 0 0 -184.96 -37 0 0 -184.96 -73.99 0 0 -110.97 -36.98 0 0 -110.99 -37 0 0 -73.97 -36.99 0 0 -37 -37 0 0 -73.99 -36.99 0 0 -73.99 -73.98 0 0 -73.97 -36.99 0 0 -37 -37 0 0 -36.99 -36.99 0 0 -37 -37 0 0 -36.99 -36.99 0 0 -36.98 -73.98 0 0 -37 -36.99 0 0 -36.99 -37 0 0 -37 -73.99 0 0 -36.99 -73.97 0 0 -37 -73.99 0 0 -36.98 -73.99 0 0 -37 -36.98 0 0 -36.99 -110.99 0 0 -37 -184.96 0 0 -36.99 -9285.15 0 0 36.99z"/>
   <polygon class="fil1" points="2539.51,2730.1 2465.52,2730.1 2465.52,2767.09 2428.52,2767.09 2428.52,2804.09 2391.53,2804.09 2391.53,2841.08 2354.55,2841.08 2354.55,2878.08 2317.55,2878.08 2317.55,2915.07 2280.56,2915.07 2280.56,2989.05 2243.56,2989.05 2243.56,3100.04 2206.57,3100.04 2206.57,3174.01 2169.57,3174.01 2169.57,7502.16 2206.57,7502.16 2206.57,7539.15 2243.56,7539.15 2243.56,7613.13 3575.3,7613.13 3575.3,8907.87 3612.29,8907.87 3612.29,8944.87 3649.29,8944.87 3649.29,9018.86 4981.02,9018.86 4981.02,10313.6 5018.02,10313.6 5018.02,10350.59 5055,10350.59 5055,10424.58 8236.37,10424.58 8236.37,10387.59 8273.37,10387.59 8273.37,10350.59 8310.36,10350.59 8310.36,9055.85 8347.34,9055.85 8347.34,9018.86 9679.08,9018.86 9679.08,8944.87 9716.07,8944.87 9716.07,7650.12 9753.07,7650.12 9753.07,7613.13 11084.8,7613.13 11084.8,7539.15 11121.8,7539.15 11121.8,3100.04 11084.8,3100.04 11084.8,2989.05 11047.81,2989.05 11047.81,2915.07 11010.81,2915.07 11010.81,2878.08 10973.83,2878.08 10973.83,2841.08 10936.84,2841.08 10936.84,2804.09 10899.84,2804.09 10899.84,2767.09 10862.85,2767.09 10862.85,2730.1 10788.86,2730.1 10788.86,2693.12 2539.51,2693.12 "/>
  </g>
 </g>
</svg>
