<?xml version="1.0" encoding="UTF-8"?>
<!DOCTYPE svg PUBLIC "-//W3C//DTD SVG 1.1//EN" "http://www.w3.org/Graphics/SVG/1.1/DTD/svg11.dtd">
<!-- Creator: CorelDRAW 2021 (64 Bit) -->
<svg xmlns="http://www.w3.org/2000/svg" xml:space="preserve" width="220mm" height="207.5mm" version="1.1" style="shape-rendering:geometricPrecision; text-rendering:geometricPrecision; image-rendering:optimizeQuality; fill-rule:evenodd; clip-rule:evenodd"
viewBox="0 0 22000 20750"
 xmlns:xlink="http://www.w3.org/1999/xlink"
 xmlns:xodm="http://www.corel.com/coreldraw/odm/2003">
 <defs>
  <style type="text/css">
   <![CDATA[
    .str0 {stroke:#FFF;stroke-width:20;stroke-miterlimit:22.9256}
    .fil0 {fill:#F2B952}
   ]]>
  </style>
 </defs>
 <g id="Camada_x0020_1">
  <metadata id="CorelCorpID_0Corel-Layer"/>
  <path class="fil0 str0" d="M19057.49 15162.53l0 3765.76 -1983.25 0 0 -3765.76 -5294.95 0 0 3762.94 -1918.91 0 0 -3762.94 -1672.16 0 0 3764.05 -1966.28 0 0 -3764.05 -1619.28 0 0 3755.99 -1995.19 0 0 -3755.99 0 -10727.75 3317.83 0 0 -2703.01 9816.84 0 0 2703.01 3315.94 0 0 10727.75 -0.59 0zm-5605.06 9.45l1966.19 0 0 3754.6 -1966.19 0 0 -3754.6z"/>
 </g>
</svg>
